<?xml version="1.0" encoding="utf-8" standalone="no"?>
<!DOCTYPE svg PUBLIC "-//W3C//DTD SVG 1.1//EN"
  "http://www.w3.org/Graphics/SVG/1.1/DTD/svg11.dtd">
<!-- Created with matplotlib (http://matplotlib.org/) -->
<svg height="317.66236pt" version="1.1" viewBox="0 0 462.180612 317.66236" width="462.180612pt" xmlns="http://www.w3.org/2000/svg" xmlns:xlink="http://www.w3.org/1999/xlink">
 <defs>
  <style type="text/css">
*{stroke-linecap:butt;stroke-linejoin:round;}
  </style>
 </defs>
 <g id="figure_1">
  <g id="patch_1">
   <path d="M 0 317.66236 
L 462.180612 317.66236 
L 462.180612 0 
L 0 0 
z
" style="fill:#ffffff;"/>
  </g>
  <g id="axes_1">
   <g id="patch_2">
    <path d="M 60.880612 65.119632 
L 115.509983 65.119632 
L 115.509983 10.7 
L 60.880612 10.7 
z
" style="fill:#ffffff;"/>
   </g>
   <g id="PathCollection_1">
    <defs>
     <path d="M 0 158.113883 
C 41.932292 158.113883 82.152791 141.454007 111.803399 111.803399 
C 141.454007 82.152791 158.113883 41.932292 158.113883 0 
C 158.113883 -41.932292 141.454007 -82.152791 111.803399 -111.803399 
C 82.152791 -141.454007 41.932292 -158.113883 0 -158.113883 
C -41.932292 -158.113883 -82.152791 -141.454007 -111.803399 -111.803399 
C -141.454007 -82.152791 -158.113883 -41.932292 -158.113883 0 
C -158.113883 41.932292 -141.454007 82.152791 -111.803399 111.803399 
C -82.152791 141.454007 -41.932292 158.113883 0 158.113883 
z
" id="C0_0_2248587614"/>
    </defs>
    <a xlink:href="https://www.google.com/search?q=amaze+situate">
     <g clip-path="url(#p5f76596c59)">
      <use style="fill:#d0e1f2;stroke:#d0e1f2;" x="88.195297" xlink:href="#C0_0_2248587614" y="37.909816"/>
     </g>
    </a>
    <a xlink:href="https://www.google.com/search?q=amaze+situate">
     <g clip-path="url(#p5f76596c59)">
      <use style="fill:#d0e1f2;stroke:#d0e1f2;" x="497.915577" xlink:href="#C0_0_2248587614" y="-1186.531902"/>
     </g>
    </a>
   </g>
   <g id="matplotlib.axis_1"/>
   <g id="matplotlib.axis_2">
    <g id="ytick_1">
     <g id="line2d_1">
      <defs>
       <path d="M 0 0 
L -3.5 0 
" id="mceaac14008" style="stroke:#000000;stroke-width:0.8;"/>
      </defs>
      <g>
       <use style="stroke:#000000;stroke-width:0.8;" x="60.880612" xlink:href="#mceaac14008" y="37.909816"/>
      </g>
     </g>
     <g id="text_1">
      <!-- situate -->
      <defs>
       <path d="M 30.90625 42.140625 
C 30.90625 43.953125 30.796875 44.046875 30.203125 44.046875 
C 29.796875 44.046875 29.703125 43.953125 28.5 42.453125 
C 28.203125 42.046875 27.296875 41.03125 27 40.640625 
C 23.796875 44.046875 19.296875 44.046875 17.59375 44.046875 
C 6.5 44.046875 2.5 38.234375 2.5 32.4375 
C 2.5 23.40625 12.703125 21.328125 15.59375 20.703125 
C 21.90625 19.421875 24.09375 19.015625 26.203125 17.203125 
C 27.5 16.015625 29.703125 13.8125 29.703125 10.21875 
C 29.703125 6 27.296875 0.59375 18.09375 0.59375 
C 9.40625 0.59375 6.296875 7.1875 4.5 15.953125 
C 4.203125 17.34375 4.203125 17.453125 3.40625 17.453125 
C 2.59375 17.453125 2.5 17.34375 2.5 15.359375 
L 2.5 0.984375 
C 2.5 -0.796875 2.59375 -0.90625 3.203125 -0.90625 
C 3.703125 -0.90625 3.796875 -0.796875 4.296875 0 
C 4.90625 0.890625 6.40625 3.296875 7 4.3125 
C 9 1.609375 12.5 -1 18.09375 -1 
C 28 -1 33.296875 4.421875 33.296875 12.25 
C 33.296875 17.375 30.59375 20.078125 29.296875 21.28125 
C 26.296875 24.390625 22.796875 25.09375 18.59375 25.890625 
C 13.09375 27.109375 6.09375 28.515625 6.09375 34.640625 
C 6.09375 37.234375 7.5 42.765625 17.59375 42.765625 
C 28.296875 42.765625 28.90625 32.71875 29.09375 29.5 
C 29.203125 29 29.703125 28.890625 30 28.890625 
C 30.90625 28.890625 30.90625 29.203125 30.90625 30.90625 
z
" id="CMR17-115"/>
       <path d="M 15.5 61.078125 
C 15.5 63.265625 13.703125 65.15625 11.40625 65.15625 
C 9.203125 65.15625 7.296875 63.375 7.296875 61.078125 
C 7.296875 58.890625 9.09375 57 11.40625 57 
C 13.59375 57 15.5 58.796875 15.5 61.078125 
z
M 3.796875 42.28125 
L 3.796875 39.703125 
C 9.40625 39.703125 10.203125 39.09375 10.203125 34.328125 
L 10.203125 6.671875 
C 10.203125 2.875 9.796875 2.390625 3.40625 2.390625 
L 3.40625 -0.203125 
C 5.796875 0 10.09375 0 12.59375 0 
C 15 0 19.09375 0 21.40625 -0.203125 
L 21.40625 2.390625 
C 15.5 2.390625 15.296875 2.984375 15.296875 6.5625 
L 15.296875 43.375 
z
" id="CMR17-105"/>
       <path d="M 15.09375 40 
L 29.09375 40 
L 29.09375 42.578125 
L 15.09375 42.578125 
L 15.09375 61 
L 13.296875 61 
C 13.09375 50.703125 9.59375 41.6875 1.09375 41.6875 
L 1.09375 40 
L 9.796875 40 
L 9.796875 12.046875 
C 9.796875 10.15625 9.796875 -1 21.40625 -1 
C 27.296875 -1 30.703125 4.78125 30.703125 12.140625 
L 30.703125 17.8125 
L 28.90625 17.8125 
L 28.90625 12.234375 
C 28.90625 5.375 26.203125 0.796875 22 0.796875 
C 19.09375 0.796875 15.09375 2.78125 15.09375 11.84375 
z
" id="CMR17-116"/>
       <path d="M 29.40625 42.078125 
L 29.40625 39.5 
C 35.296875 39.5 36.203125 38.890625 36.203125 34.15625 
L 36.203125 16.125 
C 36.203125 7.8125 31.703125 0.59375 24.296875 0.59375 
C 16.09375 0.59375 15.40625 5.4375 15.40625 10.59375 
L 15.40625 43.171875 
L 3.296875 42.078125 
L 3.296875 39.5 
C 7.296875 39.5 10 39.5 10.09375 35.53125 
L 10.09375 16.53125 
C 10.09375 9.890625 10.09375 5.640625 12.703125 2.859375 
C 14 1.578125 16.5 -1 23.703125 -1 
C 32.203125 -1 35.5 5.890625 36.296875 7.90625 
L 36.40625 7.90625 
L 36.40625 -0.984375 
L 48.296875 -0.984375 
L 48.296875 2 
C 42.40625 2 41.5 2.59375 41.5 7.390625 
L 41.5 43.171875 
z
" id="CMR17-117"/>
       <path d="M 36 25.828125 
C 36 32.375 36 35.84375 31.796875 39.734375 
C 28.09375 43 23.796875 44 20.40625 44 
C 12.5 44 6.796875 37.609375 6.796875 30.796875 
C 6.796875 27 9.796875 27 10.40625 27 
C 11.703125 27 14 27.78125 14 30.53125 
C 14 33 12.09375 34.078125 10.40625 34.078125 
C 10 34.078125 9.5 33.96875 9.203125 33.875 
C 11.296875 40.5 16.703125 42.40625 20.203125 42.40625 
C 25.203125 42.40625 30.703125 37.953125 30.703125 29.453125 
L 30.703125 25 
C 24.796875 25 17.703125 24.203125 12.09375 21.203125 
C 5.796875 17.703125 4 12.703125 4 8.90625 
C 4 1.203125 13 -1 18.296875 -1 
C 23.796875 -1 28.90625 2.171875 31.09375 7.984375 
C 31.296875 3.640625 34.09375 -0.28125 38.5 -0.28125 
C 40.59375 -0.28125 45.90625 1.09375 45.90625 8.859375 
L 45.90625 14.375 
L 44.09375 14.375 
L 44.09375 8.78125 
C 44.09375 2.78125 41.40625 2 40.09375 2 
C 36 2 36 7.15625 36 11.53125 
z
M 30.703125 13.59375 
C 30.703125 4.953125 24.5 0.59375 19 0.59375 
C 14 0.59375 10.09375 4.296875 10.09375 8.90625 
C 10.09375 11.890625 11.40625 17.1875 17.203125 20.390625 
C 22 23.09375 27.5 23.5 30.703125 23.5 
z
" id="CMR17-97"/>
       <path d="M 38.09375 23 
C 38.5 23.40625 38.5 23.609375 38.5 24.625 
C 38.5 34.96875 33.09375 44 21.703125 44 
C 11.09375 44 2.703125 33.890625 2.703125 21.609375 
C 2.703125 8.609375 12.203125 -1 22.796875 -1 
C 34 -1 38.40625 9.484375 38.40625 11.5625 
C 38.40625 12.25 37.796875 12.25 37.59375 12.25 
C 36.90625 12.25 36.796875 12.046875 36.40625 10.875 
C 34.203125 4.140625 28.703125 0.796875 23.5 0.796875 
C 19.203125 0.796875 14.90625 3.171875 12.203125 7.5 
C 9.09375 12.546875 9.09375 18.375 9.09375 23 
z
M 9.203125 24.5 
C 9.90625 39.140625 17.59375 42.40625 21.59375 42.40625 
C 28.40625 42.40625 33 35.890625 33.09375 24.5 
z
" id="CMR17-101"/>
      </defs>
      <g transform="translate(17.2645 74.638657)rotate(-45)scale(0.18 -0.18)">
       <use transform="scale(0.996264)" xlink:href="#CMR17-115"/>
       <use transform="translate(35.801338 0)scale(0.996264)" xlink:href="#CMR17-105"/>
       <use transform="translate(60.672396 0)scale(0.996264)" xlink:href="#CMR17-116"/>
       <use transform="translate(95.953164 0)scale(0.996264)" xlink:href="#CMR17-117"/>
       <use transform="translate(146.848534 0)scale(0.996264)" xlink:href="#CMR17-97"/>
       <use transform="translate(192.539011 0)scale(0.996264)" xlink:href="#CMR17-116"/>
       <use transform="translate(227.819779 0)scale(0.996264)" xlink:href="#CMR17-101"/>
      </g>
     </g>
    </g>
   </g>
   <g id="text_2">
    <g id="patch_3">
     <path d="M 72.332617 51.280498 
L 104.057977 51.280498 
L 104.057977 24.539134 
L 72.332617 24.539134 
z
" style="fill:none;opacity:0;"/>
    </g>
    <!-- 4.8 -->
    <defs>
     <path d="M 33.59375 64.40625 
C 33.59375 66.5 33.5 66.5 31.703125 66.5 
L 2 19.59375 
L 2 17 
L 27.796875 17 
L 27.796875 7.140625 
C 27.796875 3.5 27.59375 2.5 20.59375 2.5 
L 18.703125 2.5 
L 18.703125 0 
C 21.90625 0 27.296875 0 30.703125 0 
C 34.09375 0 39.5 0 42.703125 0 
L 42.703125 2.5 
L 40.796875 2.5 
C 33.796875 2.5 33.59375 3.5 33.59375 7.140625 
L 33.59375 17 
L 43.796875 17 
L 43.796875 19.59375 
L 33.59375 19.59375 
z
M 28.09375 57.859375 
L 28.09375 19.59375 
L 4 19.59375 
z
" id="CMR17-52"/>
     <path d="M 16.59375 4.078125 
C 16.59375 6.5625 14.59375 8.15625 12.5 8.15625 
C 10.5 8.15625 8.40625 6.5625 8.40625 4.078125 
C 8.40625 1.59375 10.40625 0 12.5 0 
C 14.5 0 16.59375 1.59375 16.59375 4.078125 
z
" id="CMR17-46"/>
     <path d="M 27.203125 35.375 
C 33.5 38.546875 39.90625 43.328125 39.90625 50.984375 
C 39.90625 60.015625 31.09375 65.296875 23 65.296875 
C 13.90625 65.296875 5.90625 58.734375 5.90625 49.6875 
C 5.90625 47.203125 6.5 42.921875 10.40625 39.140625 
C 11.40625 38.15625 15.59375 35.171875 18.296875 33.28125 
C 13.796875 30.984375 3.296875 25.53125 3.296875 14.59375 
C 3.296875 4.359375 13.09375 -2 22.796875 -2 
C 33.5 -2 42.5 5.65625 42.5 15.78125 
C 42.5 24.84375 36.40625 29.015625 32.40625 31.703125 
z
M 14.09375 44.09375 
C 13.296875 44.59375 9.296875 47.671875 9.296875 52.359375 
C 9.296875 58.421875 15.59375 63 22.796875 63 
C 30.703125 63 36.5 57.4375 36.5 50.96875 
C 36.5 41.703125 26.09375 36.421875 25.59375 36.421875 
C 25.5 36.421875 25.40625 36.421875 24.59375 37.03125 
z
M 32.5 23.734375 
C 34 22.640625 38.796875 19.375 38.796875 13.296875 
C 38.796875 5.953125 31.40625 0.390625 23 0.390625 
C 13.90625 0.390625 7 6.84375 7 14.6875 
C 7 22.546875 13.09375 29.09375 20 32.1875 
z
" id="CMR17-56"/>
    </defs>
    <g transform="translate(77.732617 42.392434)scale(0.18 -0.18)">
     <use transform="scale(0.996264)" xlink:href="#CMR17-52"/>
     <use transform="translate(45.690477 0)scale(0.996264)" xlink:href="#CMR17-46"/>
     <use transform="translate(70.561536 0)scale(0.996264)" xlink:href="#CMR17-56"/>
    </g>
   </g>
  </g>
  <g id="axes_2">
   <g id="patch_4">
    <path d="M 116.875717 65.119632 
L 171.505088 65.119632 
L 171.505088 10.7 
L 116.875717 10.7 
z
" style="fill:#ffffff;"/>
   </g>
   <g id="PathCollection_2">
    <defs>
     <path d="M 0 158.113883 
C 41.932292 158.113883 82.152791 141.454007 111.803399 111.803399 
C 141.454007 82.152791 158.113883 41.932292 158.113883 0 
C 158.113883 -41.932292 141.454007 -82.152791 111.803399 -111.803399 
C 82.152791 -141.454007 41.932292 -158.113883 0 -158.113883 
C -41.932292 -158.113883 -82.152791 -141.454007 -111.803399 -111.803399 
C -141.454007 -82.152791 -158.113883 -41.932292 -158.113883 0 
C -158.113883 41.932292 -141.454007 82.152791 -111.803399 111.803399 
C -82.152791 141.454007 -41.932292 158.113883 0 158.113883 
z
" id="C1_0_95a2d25626"/>
    </defs>
    <a xlink:href="https://www.google.com/search?q=Dirichlet+situate">
     <g clip-path="url(#p543ab6cee7)">
      <use style="fill:#c8dcf0;stroke:#c8dcf0;" x="144.190402" xlink:href="#C1_0_95a2d25626" y="37.909816"/>
     </g>
    </a>
    <a xlink:href="https://www.google.com/search?q=Dirichlet+situate">
     <g clip-path="url(#p543ab6cee7)">
      <use style="fill:#c8dcf0;stroke:#c8dcf0;" x="553.910682" xlink:href="#C1_0_95a2d25626" y="-1186.531902"/>
     </g>
    </a>
   </g>
   <g id="matplotlib.axis_3"/>
   <g id="matplotlib.axis_4"/>
   <g id="text_3">
    <g id="patch_5">
     <path d="M 128.327722 51.280498 
L 160.053082 51.280498 
L 160.053082 24.539134 
L 128.327722 24.539134 
z
" style="fill:none;opacity:0;"/>
    </g>
    <!-- 5.7 -->
    <defs>
     <path d="M 11.40625 57.6875 
C 12.40625 57.28125 16.5 56 20.703125 56 
C 30 56 35.09375 61.109375 38 64.0625 
C 38 64.953125 38 65.5 37.40625 65.5 
C 37.296875 65.5 37.09375 65.5 36.296875 65.046875 
C 32.796875 63.40625 28.703125 62.078125 23.703125 62.078125 
C 20.703125 62.078125 16.203125 62.484375 11.296875 64.671875 
C 10.203125 65.171875 10 65.171875 9.90625 65.171875 
C 9.40625 65.171875 9.296875 65.0625 9.296875 63.078125 
L 9.296875 34.421875 
C 9.296875 32.640625 9.296875 32.140625 10.296875 32.140625 
C 10.796875 32.140625 11 32.34375 11.5 33.03125 
C 14.703125 37.515625 19.09375 39.40625 24.09375 39.40625 
C 27.59375 39.40625 35.09375 37.21875 35.09375 20.140625 
C 35.09375 16.953125 35.09375 11.171875 32.09375 6.578125 
C 29.59375 2.484375 25.703125 0.390625 21.40625 0.390625 
C 14.796875 0.390625 8.09375 5 6.296875 12.71875 
C 6.703125 12.609375 7.5 12.421875 7.90625 12.421875 
C 9.203125 12.421875 11.703125 13.125 11.703125 16.21875 
C 11.703125 18.90625 9.796875 20 7.90625 20 
C 5.59375 20 4.09375 18.59375 4.09375 15.796875 
C 4.09375 7.09375 11 -2 21.59375 -2 
C 31.90625 -2 41.703125 6.875 41.703125 19.75 
C 41.703125 31.71875 33.90625 41 24.203125 41 
C 19.09375 41 14.796875 39.109375 11.40625 35.53125 
z
" id="CMR17-53"/>
     <path d="M 45.09375 61.578125 
L 45.09375 63.765625 
L 21.59375 63.765625 
C 9.90625 63.765625 9.703125 65.078125 9.296875 67 
L 7.5 67 
L 4.59375 48.34375 
L 6.40625 48.34375 
C 6.703125 50.234375 7.40625 55.3125 8.59375 57.203125 
C 9.203125 58 16.59375 58 18.296875 58 
L 40.296875 58 
L 29.203125 41.578125 
C 21.796875 30.53125 16.703125 15.609375 16.703125 2.578125 
C 16.703125 1.390625 16.703125 -2 20.296875 -2 
C 23.90625 -2 23.90625 1.390625 23.90625 2.671875 
L 23.90625 7.265625 
C 23.90625 23.5625 26.703125 34.3125 31.296875 41.1875 
z
" id="CMR17-55"/>
    </defs>
    <g transform="translate(133.727722 42.392434)scale(0.18 -0.18)">
     <use transform="scale(0.996264)" xlink:href="#CMR17-53"/>
     <use transform="translate(45.690477 0)scale(0.996264)" xlink:href="#CMR17-46"/>
     <use transform="translate(70.561536 0)scale(0.996264)" xlink:href="#CMR17-55"/>
    </g>
   </g>
  </g>
  <g id="axes_3">
   <g id="patch_6">
    <path d="M 172.870822 65.119632 
L 227.500192 65.119632 
L 227.500192 10.7 
L 172.870822 10.7 
z
" style="fill:#ffffff;"/>
   </g>
   <g id="PathCollection_3">
    <defs>
     <path d="M 0 158.113883 
C 41.932292 158.113883 82.152791 141.454007 111.803399 111.803399 
C 141.454007 82.152791 158.113883 41.932292 158.113883 0 
C 158.113883 -41.932292 141.454007 -82.152791 111.803399 -111.803399 
C 82.152791 -141.454007 41.932292 -158.113883 0 -158.113883 
C -41.932292 -158.113883 -82.152791 -141.454007 -111.803399 -111.803399 
C -141.454007 -82.152791 -158.113883 -41.932292 -158.113883 0 
C -158.113883 41.932292 -141.454007 82.152791 -111.803399 111.803399 
C -82.152791 141.454007 -41.932292 158.113883 0 158.113883 
z
" id="C2_0_ecdd60bd08"/>
    </defs>
    <a xlink:href="https://www.google.com/search?q=Weller+situate">
     <g clip-path="url(#p716e0b0dee)">
      <use style="fill:#d6e5f4;stroke:#d6e5f4;" x="200.185507" xlink:href="#C2_0_ecdd60bd08" y="37.909816"/>
     </g>
    </a>
    <a xlink:href="https://www.google.com/search?q=Weller+situate">
     <g clip-path="url(#p716e0b0dee)">
      <use style="fill:#d6e5f4;stroke:#d6e5f4;" x="609.905787" xlink:href="#C2_0_ecdd60bd08" y="-1186.531902"/>
     </g>
    </a>
   </g>
   <g id="matplotlib.axis_5"/>
   <g id="matplotlib.axis_6"/>
   <g id="text_4">
    <g id="patch_7">
     <path d="M 184.322827 51.280498 
L 216.048187 51.280498 
L 216.048187 24.539134 
L 184.322827 24.539134 
z
" style="fill:none;opacity:0;"/>
    </g>
    <!-- 4.0 -->
    <defs>
     <path d="M 42 31.640625 
C 42 37.75 41.90625 48.125 37.703125 56.109375 
C 34 63.109375 28.09375 65.59375 22.90625 65.59375 
C 18.09375 65.59375 12 63.40625 8.203125 56.203125 
C 4.203125 48.71875 3.796875 39.4375 3.796875 31.640625 
C 3.796875 25.953125 3.90625 17.28125 7 9.671875 
C 11.296875 -0.609375 19 -2 22.90625 -2 
C 27.5 -2 34.5 -0.109375 38.59375 9.375 
C 41.59375 16.28125 42 24.359375 42 31.640625 
z
M 22.90625 -0.40625 
C 16.5 -0.40625 12.703125 5.078125 11.296875 12.6875 
C 10.203125 18.5625 10.203125 27.15625 10.203125 32.75 
C 10.203125 40.4375 10.203125 46.828125 11.5 52.921875 
C 13.40625 61.390625 19 64 22.90625 64 
C 27 64 32.296875 61.296875 34.203125 53.125 
C 35.5 47.4375 35.59375 40.734375 35.59375 32.75 
C 35.59375 26.25 35.59375 18.265625 34.40625 12.375 
C 32.296875 1.484375 26.40625 -0.40625 22.90625 -0.40625 
z
" id="CMR17-48"/>
    </defs>
    <g transform="translate(189.722827 42.392434)scale(0.18 -0.18)">
     <use transform="scale(0.996264)" xlink:href="#CMR17-52"/>
     <use transform="translate(45.690477 0)scale(0.996264)" xlink:href="#CMR17-46"/>
     <use transform="translate(70.561536 0)scale(0.996264)" xlink:href="#CMR17-48"/>
    </g>
   </g>
  </g>
  <g id="axes_4">
   <g id="patch_8">
    <path d="M 228.865927 65.119632 
L 283.495297 65.119632 
L 283.495297 10.7 
L 228.865927 10.7 
z
" style="fill:#ffffff;"/>
   </g>
   <g id="PathCollection_4">
    <defs>
     <path d="M 0 158.113883 
C 41.932292 158.113883 82.152791 141.454007 111.803399 111.803399 
C 141.454007 82.152791 158.113883 41.932292 158.113883 0 
C 158.113883 -41.932292 141.454007 -82.152791 111.803399 -111.803399 
C 82.152791 -141.454007 41.932292 -158.113883 0 -158.113883 
C -41.932292 -158.113883 -82.152791 -141.454007 -111.803399 -111.803399 
C -141.454007 -82.152791 -158.113883 -41.932292 -158.113883 0 
C -158.113883 41.932292 -141.454007 82.152791 -111.803399 111.803399 
C -82.152791 141.454007 -41.932292 158.113883 0 158.113883 
z
" id="C3_0_b8450610a3"/>
    </defs>
    <a xlink:href="https://www.google.com/search?q=luminescent+situate">
     <g clip-path="url(#pc9bea1ba38)">
      <use style="fill:#5fa6d1;stroke:#5fa6d1;" x="256.180612" xlink:href="#C3_0_b8450610a3" y="37.909816"/>
     </g>
    </a>
    <a xlink:href="https://www.google.com/search?q=luminescent+situate">
     <g clip-path="url(#pc9bea1ba38)">
      <use style="fill:#5fa6d1;stroke:#5fa6d1;" x="665.900892" xlink:href="#C3_0_b8450610a3" y="-1186.531902"/>
     </g>
    </a>
   </g>
   <g id="matplotlib.axis_7"/>
   <g id="matplotlib.axis_8"/>
   <g id="text_5">
    <g id="patch_9">
     <path d="M 236.205789 51.280498 
L 276.155435 51.280498 
L 276.155435 24.539134 
L 236.205789 24.539134 
z
" style="fill:none;opacity:0;"/>
    </g>
    <!-- 12.6 -->
    <defs>
     <path d="M 26.59375 63.40625 
C 26.59375 65.5 26.5 65.5 25.09375 65.5 
C 21.203125 61.1875 15.296875 59.796875 9.703125 59.796875 
C 9.40625 59.796875 8.90625 59.796875 8.796875 59.5 
C 8.703125 59.296875 8.703125 59.09375 8.703125 57 
C 11.796875 57 17 57.59375 21 59.984375 
L 21 7.203125 
C 21 3.6875 20.796875 2.5 12.203125 2.5 
L 9.203125 2.5 
L 9.203125 0 
C 14 0 19 0 23.796875 0 
C 28.59375 0 33.59375 0 38.40625 0 
L 38.40625 2.5 
L 35.40625 2.5 
C 26.796875 2.5 26.59375 3.59375 26.59375 7.15625 
z
" id="CMR17-49"/>
     <path d="M 41.703125 15.453125 
L 39.90625 15.453125 
C 38.90625 8.375 38.09375 7.171875 37.703125 6.5625 
C 37.203125 5.765625 30 5.765625 28.59375 5.765625 
L 9.40625 5.765625 
C 13 9.671875 20 16.75 28.5 24.953125 
C 34.59375 30.734375 41.703125 37.53125 41.703125 47.421875 
C 41.703125 59.21875 32.296875 66 21.796875 66 
C 10.796875 66 4.09375 56.3125 4.09375 47.34375 
C 4.09375 43.4375 7 42.9375 8.203125 42.9375 
C 9.203125 42.9375 12.203125 43.546875 12.203125 47.03125 
C 12.203125 50.109375 9.59375 51 8.203125 51 
C 7.59375 51 7 50.90625 6.59375 50.703125 
C 8.5 59.21875 14.296875 63.40625 20.40625 63.40625 
C 29.09375 63.40625 34.796875 56.515625 34.796875 47.421875 
C 34.796875 38.734375 29.703125 31.25 24 24.75 
L 4.09375 2.28125 
L 4.09375 0 
L 39.296875 0 
z
" id="CMR17-50"/>
     <path d="M 10.59375 34 
C 10.59375 57.65625 21.796875 63 28.296875 63 
C 30.40625 63 35.5 62.640625 37.5 59 
C 35.90625 59 32.90625 59 32.90625 55.515625 
C 32.90625 52.828125 35.09375 51.921875 36.5 51.921875 
C 37.40625 51.921875 40.09375 52.3125 40.09375 55.625 
C 40.09375 61.78125 35.09375 65.296875 28.203125 65.296875 
C 16.296875 65.296875 3.796875 52.96875 3.796875 31 
C 3.796875 3.953125 15.09375 -2 23.09375 -2 
C 32.796875 -2 42 6.671875 42 20.046875 
C 42 32.515625 33.90625 41.59375 23.703125 41.59375 
C 17.59375 41.59375 13.09375 37.609375 10.59375 30.625 
z
M 23.09375 0.390625 
C 10.796875 0.390625 10.796875 18.75 10.796875 22.4375 
C 10.796875 29.625 14.203125 40 23.5 40 
C 25.203125 40 30.09375 40 33.40625 33.125 
C 35.203125 29.21875 35.203125 25.140625 35.203125 20.140625 
C 35.203125 14.75 35.203125 10.78125 33.09375 6.78125 
C 30.90625 2.671875 27.703125 0.390625 23.09375 0.390625 
z
" id="CMR17-54"/>
    </defs>
    <g style="fill:#ffffff;" transform="translate(241.605789 42.392434)scale(0.18 -0.18)">
     <use transform="scale(0.996264)" xlink:href="#CMR17-49"/>
     <use transform="translate(45.690477 0)scale(0.996264)" xlink:href="#CMR17-50"/>
     <use transform="translate(91.380954 0)scale(0.996264)" xlink:href="#CMR17-46"/>
     <use transform="translate(116.252013 0)scale(0.996264)" xlink:href="#CMR17-54"/>
    </g>
   </g>
  </g>
  <g id="axes_5">
   <g id="patch_10">
    <path d="M 284.861032 65.119632 
L 339.490402 65.119632 
L 339.490402 10.7 
L 284.861032 10.7 
z
" style="fill:#ffffff;"/>
   </g>
   <g id="PathCollection_5">
    <defs>
     <path d="M 0 158.113883 
C 41.932292 158.113883 82.152791 141.454007 111.803399 111.803399 
C 141.454007 82.152791 158.113883 41.932292 158.113883 0 
C 158.113883 -41.932292 141.454007 -82.152791 111.803399 -111.803399 
C 82.152791 -141.454007 41.932292 -158.113883 0 -158.113883 
C -41.932292 -158.113883 -82.152791 -141.454007 -111.803399 -111.803399 
C -141.454007 -82.152791 -158.113883 -41.932292 -158.113883 0 
C -158.113883 41.932292 -141.454007 82.152791 -111.803399 111.803399 
C -82.152791 141.454007 -41.932292 158.113883 0 158.113883 
z
" id="C4_0_77a66e5808"/>
    </defs>
    <a xlink:href="https://www.google.com/search?q=solute+situate">
     <g clip-path="url(#p84df0b61ff)">
      <use style="fill:#bcd7eb;stroke:#bcd7eb;" x="312.175717" xlink:href="#C4_0_77a66e5808" y="37.909816"/>
     </g>
    </a>
    <a xlink:href="https://www.google.com/search?q=solute+situate">
     <g clip-path="url(#p84df0b61ff)">
      <use style="fill:#bcd7eb;stroke:#bcd7eb;" x="721.895997" xlink:href="#C4_0_77a66e5808" y="-1186.531902"/>
     </g>
    </a>
   </g>
   <g id="matplotlib.axis_9"/>
   <g id="matplotlib.axis_10"/>
   <g id="text_6">
    <g id="patch_11">
     <path d="M 296.313037 51.280498 
L 328.038397 51.280498 
L 328.038397 24.539134 
L 296.313037 24.539134 
z
" style="fill:none;opacity:0;"/>
    </g>
    <!-- 6.6 -->
    <g transform="translate(301.713037 42.392434)scale(0.18 -0.18)">
     <use transform="scale(0.996264)" xlink:href="#CMR17-54"/>
     <use transform="translate(45.690477 0)scale(0.996264)" xlink:href="#CMR17-46"/>
     <use transform="translate(70.561536 0)scale(0.996264)" xlink:href="#CMR17-54"/>
    </g>
   </g>
  </g>
  <g id="axes_6">
   <g id="patch_12">
    <path d="M 340.856137 65.119632 
L 395.485507 65.119632 
L 395.485507 10.7 
L 340.856137 10.7 
z
" style="fill:#ffffff;"/>
   </g>
   <g id="PathCollection_6">
    <defs>
     <path d="M 0 158.113883 
C 41.932292 158.113883 82.152791 141.454007 111.803399 111.803399 
C 141.454007 82.152791 158.113883 41.932292 158.113883 0 
C 158.113883 -41.932292 141.454007 -82.152791 111.803399 -111.803399 
C 82.152791 -141.454007 41.932292 -158.113883 0 -158.113883 
C -41.932292 -158.113883 -82.152791 -141.454007 -111.803399 -111.803399 
C -141.454007 -82.152791 -158.113883 -41.932292 -158.113883 0 
C -158.113883 41.932292 -141.454007 82.152791 -111.803399 111.803399 
C -82.152791 141.454007 -41.932292 158.113883 0 158.113883 
z
" id="C5_0_889bb4ea73"/>
    </defs>
    <a xlink:href="https://www.google.com/search?q=unital+situate">
     <g clip-path="url(#pdef8b022a2)">
      <use style="fill:#d6e5f4;stroke:#d6e5f4;" x="368.170822" xlink:href="#C5_0_889bb4ea73" y="37.909816"/>
     </g>
    </a>
    <a xlink:href="https://www.google.com/search?q=unital+situate">
     <g clip-path="url(#pdef8b022a2)">
      <use style="fill:#d6e5f4;stroke:#d6e5f4;" x="777.891102" xlink:href="#C5_0_889bb4ea73" y="-1186.531902"/>
     </g>
    </a>
   </g>
   <g id="matplotlib.axis_11"/>
   <g id="matplotlib.axis_12"/>
   <g id="text_7">
    <g id="patch_13">
     <path d="M 352.308142 51.280498 
L 384.033502 51.280498 
L 384.033502 24.539134 
L 352.308142 24.539134 
z
" style="fill:none;opacity:0;"/>
    </g>
    <!-- 4.1 -->
    <g transform="translate(357.708142 42.392434)scale(0.18 -0.18)">
     <use transform="scale(0.996264)" xlink:href="#CMR17-52"/>
     <use transform="translate(45.690477 0)scale(0.996264)" xlink:href="#CMR17-46"/>
     <use transform="translate(70.561536 0)scale(0.996264)" xlink:href="#CMR17-49"/>
    </g>
   </g>
  </g>
  <g id="axes_7">
   <g id="patch_14">
    <path d="M 396.851241 65.119632 
L 451.480612 65.119632 
L 451.480612 10.7 
L 396.851241 10.7 
z
" style="fill:#ffffff;"/>
   </g>
   <g id="PathCollection_7">
    <defs>
     <path d="M 0 158.113883 
C 41.932292 158.113883 82.152791 141.454007 111.803399 111.803399 
C 141.454007 82.152791 158.113883 41.932292 158.113883 0 
C 158.113883 -41.932292 141.454007 -82.152791 111.803399 -111.803399 
C 82.152791 -141.454007 41.932292 -158.113883 0 -158.113883 
C -41.932292 -158.113883 -82.152791 -141.454007 -111.803399 -111.803399 
C -141.454007 -82.152791 -158.113883 -41.932292 -158.113883 0 
C -158.113883 41.932292 -141.454007 82.152791 -111.803399 111.803399 
C -82.152791 141.454007 -41.932292 158.113883 0 158.113883 
z
" id="C6_0_c5b738eccf"/>
    </defs>
    <a xlink:href="https://www.google.com/search?q=Schofield+situate">
     <g clip-path="url(#p062e2c6fbe)">
      <use style="fill:#2a7ab9;stroke:#2a7ab9;" x="424.165927" xlink:href="#C6_0_c5b738eccf" y="37.909816"/>
     </g>
    </a>
    <a xlink:href="https://www.google.com/search?q=Schofield+situate">
     <g clip-path="url(#p062e2c6fbe)">
      <use style="fill:#2a7ab9;stroke:#2a7ab9;" x="833.886206" xlink:href="#C6_0_c5b738eccf" y="-1186.531902"/>
     </g>
    </a>
   </g>
   <g id="matplotlib.axis_13"/>
   <g id="matplotlib.axis_14"/>
   <g id="text_8">
    <g id="patch_15">
     <path d="M 404.191104 51.280498 
L 444.14075 51.280498 
L 444.14075 24.539134 
L 404.191104 24.539134 
z
" style="fill:none;opacity:0;"/>
    </g>
    <!-- 16.8 -->
    <g style="fill:#ffffff;" transform="translate(409.591104 42.392434)scale(0.18 -0.18)">
     <use transform="scale(0.996264)" xlink:href="#CMR17-49"/>
     <use transform="translate(45.690477 0)scale(0.996264)" xlink:href="#CMR17-54"/>
     <use transform="translate(91.380954 0)scale(0.996264)" xlink:href="#CMR17-46"/>
     <use transform="translate(116.252013 0)scale(0.996264)" xlink:href="#CMR17-56"/>
    </g>
   </g>
  </g>
  <g id="axes_8">
   <g id="patch_16">
    <path d="M 60.880612 120.899755 
L 115.509983 120.899755 
L 115.509983 66.480123 
L 60.880612 66.480123 
z
" style="fill:#ffffff;"/>
   </g>
   <g id="PathCollection_8">
    <defs>
     <path d="M 0 158.113883 
C 41.932292 158.113883 82.152791 141.454007 111.803399 111.803399 
C 141.454007 82.152791 158.113883 41.932292 158.113883 0 
C 158.113883 -41.932292 141.454007 -82.152791 111.803399 -111.803399 
C 82.152791 -141.454007 41.932292 -158.113883 0 -158.113883 
C -41.932292 -158.113883 -82.152791 -141.454007 -111.803399 -111.803399 
C -141.454007 -82.152791 -158.113883 -41.932292 -158.113883 0 
C -158.113883 41.932292 -141.454007 82.152791 -111.803399 111.803399 
C -82.152791 141.454007 -41.932292 158.113883 0 158.113883 
z
" id="C7_0_29a7bba808"/>
    </defs>
    <a xlink:href="https://www.google.com/search?q=amaze+molar">
     <g clip-path="url(#ped1579e70d)">
      <use style="fill:#d9e8f5;stroke:#d9e8f5;" x="88.195297" xlink:href="#C7_0_29a7bba808" y="93.689939"/>
     </g>
    </a>
    <a xlink:href="https://www.google.com/search?q=amaze+molar">
     <g clip-path="url(#ped1579e70d)">
      <use style="fill:#d9e8f5;stroke:#d9e8f5;" x="497.915577" xlink:href="#C7_0_29a7bba808" y="-1130.751779"/>
     </g>
    </a>
   </g>
   <g id="matplotlib.axis_15"/>
   <g id="matplotlib.axis_16">
    <g id="ytick_2">
     <g id="line2d_2">
      <g>
       <use style="stroke:#000000;stroke-width:0.8;" x="60.880612" xlink:href="#mceaac14008" y="93.689939"/>
      </g>
     </g>
     <g id="text_9">
      <!-- molar -->
      <defs>
       <path d="M 67.59375 30.203125 
C 67.59375 35.1875 66.703125 43.59375 54.796875 43.59375 
C 48 43.59375 43.296875 39 41.5 33.609375 
L 41.40625 33.609375 
C 40.203125 41.8125 34.296875 43.59375 28.703125 43.59375 
C 20.796875 43.59375 16.703125 37.5 15.203125 33.5 
L 15.09375 33.5 
L 15.09375 43.59375 
L 3.296875 42.5 
L 3.296875 39.90625 
C 9.203125 39.90625 10.09375 39.296875 10.09375 34.5 
L 10.09375 6.6875 
C 10.09375 2.875 9.703125 2.390625 3.296875 2.390625 
L 3.296875 -0.203125 
C 5.703125 0 10.09375 0 12.703125 0 
C 15.296875 0 19.796875 0 22.203125 -0.203125 
L 22.203125 2.390625 
C 15.796875 2.390625 15.40625 2.78125 15.40625 6.6875 
L 15.40625 25.90625 
C 15.40625 35.109375 21 42 28 42 
C 35.40625 42 36.203125 35.40625 36.203125 30.59375 
L 36.203125 6.6875 
C 36.203125 2.875 35.796875 2.390625 29.40625 2.390625 
L 29.40625 -0.203125 
C 31.796875 0 36.203125 0 38.796875 0 
C 41.40625 0 45.90625 0 48.296875 -0.203125 
L 48.296875 2.390625 
C 41.90625 2.390625 41.5 2.78125 41.5 6.6875 
L 41.5 25.90625 
C 41.5 35.109375 47.09375 42 54.09375 42 
C 61.5 42 62.296875 35.40625 62.296875 30.59375 
L 62.296875 6.6875 
C 62.296875 2.875 61.90625 2.390625 55.5 2.390625 
L 55.5 -0.203125 
C 57.90625 0 62.296875 0 64.90625 0 
C 67.5 0 72 0 74.40625 -0.203125 
L 74.40625 2.390625 
C 68 2.390625 67.59375 2.78125 67.59375 6.6875 
z
" id="CMR17-109"/>
       <path d="M 43.09375 21.1875 
C 43.09375 34 33.796875 44 22.90625 44 
C 12 44 2.703125 34 2.703125 21.1875 
C 2.703125 8.609375 12 -1 22.90625 -1 
C 33.796875 -1 43.09375 8.609375 43.09375 21.1875 
z
M 22.90625 0.796875 
C 18.203125 0.796875 14.203125 3.59375 11.90625 7.5 
C 9.40625 11.984375 9.09375 17.59375 9.09375 22 
C 9.09375 26.203125 9.296875 31.40625 11.90625 35.90625 
C 13.90625 39.203125 17.796875 42.40625 22.90625 42.40625 
C 27.40625 42.40625 31.203125 39.90625 33.59375 36.40625 
C 36.703125 31.703125 36.703125 25.109375 36.703125 22 
C 36.703125 18.09375 36.5 12.109375 33.796875 7.296875 
C 31 2.703125 26.703125 0.796875 22.90625 0.796875 
z
" id="CMR17-111"/>
       <path d="M 15.296875 68.6875 
L 3.40625 67.59375 
L 3.40625 65 
C 9.296875 65 10.203125 64.40625 10.203125 59.640625 
L 10.203125 6.65625 
C 10.203125 2.875 9.796875 2.390625 3.40625 2.390625 
L 3.40625 -0.203125 
C 5.796875 0 10.203125 0 12.703125 0 
C 15.296875 0 19.703125 0 22.09375 -0.203125 
L 22.09375 2.390625 
C 15.703125 2.390625 15.296875 2.78125 15.296875 6.65625 
z
" id="CMR17-108"/>
       <path d="M 15 23.390625 
C 15 33 19.09375 42 26.59375 42 
C 27.296875 42 28 41.90625 28.703125 41.59375 
C 28.703125 41.59375 26.5 40.890625 26.5 38.3125 
C 26.5 35.90625 28.40625 34.90625 29.90625 34.90625 
C 31.09375 34.90625 33.296875 35.609375 33.296875 38.40625 
C 33.296875 41.609375 30.09375 43.59375 26.703125 43.59375 
C 19.09375 43.59375 15.796875 36.203125 14.796875 32.703125 
L 14.703125 32.703125 
L 14.703125 43.59375 
L 3.09375 42.5 
L 3.09375 39.90625 
C 9 39.90625 9.90625 39.296875 9.90625 34.5 
L 9.90625 6.6875 
C 9.90625 2.875 9.5 2.390625 3.09375 2.390625 
L 3.09375 -0.203125 
C 5.5 0 10.09375 0 12.703125 0 
C 15.59375 0 20.703125 0 23.40625 -0.203125 
L 23.40625 2.390625 
C 16.203125 2.390625 15 2.390625 15 6.875 
z
" id="CMR17-114"/>
      </defs>
      <g transform="translate(22.336947 125.346332)rotate(-45)scale(0.18 -0.18)">
       <use transform="scale(0.996264)" xlink:href="#CMR17-109"/>
       <use transform="translate(76.91959 0)scale(0.996264)" xlink:href="#CMR17-111"/>
       <use transform="translate(122.610067 0)scale(0.996264)" xlink:href="#CMR17-108"/>
       <use transform="translate(147.481125 0)scale(0.996264)" xlink:href="#CMR17-97"/>
       <use transform="translate(193.171603 0)scale(0.996264)" xlink:href="#CMR17-114"/>
      </g>
     </g>
    </g>
   </g>
   <g id="text_10">
    <g id="patch_17">
     <path d="M 72.332617 107.060621 
L 104.057977 107.060621 
L 104.057977 80.319257 
L 72.332617 80.319257 
z
" style="fill:none;opacity:0;"/>
    </g>
    <!-- 3.6 -->
    <defs>
     <path d="M 22.09375 33.703125 
C 31 33.703125 34.90625 25.96875 34.90625 17.03125 
C 34.90625 5 28.5 0.390625 22.703125 0.390625 
C 17.40625 0.390625 8.796875 3.03125 6.09375 10.828125 
C 6.59375 10.625 7.09375 10.625 7.59375 10.625 
C 10 10.625 11.796875 12.21875 11.796875 14.8125 
C 11.796875 17.703125 9.59375 19 7.59375 19 
C 5.90625 19 3.296875 18.203125 3.296875 14.46875 
C 3.296875 5.234375 12.296875 -2 22.90625 -2 
C 34 -2 42.5 6.71875 42.5 16.953125 
C 42.5 26.671875 34.5 33.703125 25 34.796875 
C 32.59375 36.375 39.90625 43.0625 39.90625 52.015625 
C 39.90625 59.6875 32 65.296875 23 65.296875 
C 13.90625 65.296875 5.90625 59.828125 5.90625 52.015625 
C 5.90625 48.59375 8.5 48 9.796875 48 
C 11.90625 48 13.703125 49.296875 13.703125 51.890625 
C 13.703125 54.46875 11.90625 55.765625 9.796875 55.765625 
C 9.40625 55.765625 8.90625 55.765625 8.5 55.578125 
C 11.40625 61.859375 19.296875 63 22.796875 63 
C 26.296875 63 32.90625 61.328125 32.90625 51.875 
C 32.90625 49.109375 32.5 44.1875 29.09375 39.84375 
C 26.09375 36 22.703125 36 19.40625 35.6875 
C 18.90625 35.6875 16.59375 35.453125 16.203125 35.453125 
C 15.5 35.359375 15.09375 35.265625 15.09375 34.5 
C 15.09375 33.796875 15.203125 33.703125 17.203125 33.703125 
z
" id="CMR17-51"/>
    </defs>
    <g transform="translate(77.732617 98.172557)scale(0.18 -0.18)">
     <use transform="scale(0.996264)" xlink:href="#CMR17-51"/>
     <use transform="translate(45.690477 0)scale(0.996264)" xlink:href="#CMR17-46"/>
     <use transform="translate(70.561536 0)scale(0.996264)" xlink:href="#CMR17-54"/>
    </g>
   </g>
  </g>
  <g id="axes_9">
   <g id="patch_18">
    <path d="M 116.875717 120.899755 
L 171.505088 120.899755 
L 171.505088 66.480123 
L 116.875717 66.480123 
z
" style="fill:#ffffff;"/>
   </g>
   <g id="PathCollection_9">
    <defs>
     <path d="M 0 158.113883 
C 41.932292 158.113883 82.152791 141.454007 111.803399 111.803399 
C 141.454007 82.152791 158.113883 41.932292 158.113883 0 
C 158.113883 -41.932292 141.454007 -82.152791 111.803399 -111.803399 
C 82.152791 -141.454007 41.932292 -158.113883 0 -158.113883 
C -41.932292 -158.113883 -82.152791 -141.454007 -111.803399 -111.803399 
C -141.454007 -82.152791 -158.113883 -41.932292 -158.113883 0 
C -158.113883 41.932292 -141.454007 82.152791 -111.803399 111.803399 
C -82.152791 141.454007 -41.932292 158.113883 0 158.113883 
z
" id="C8_0_321d8c3394"/>
    </defs>
    <a xlink:href="https://www.google.com/search?q=Dirichlet+molar">
     <g clip-path="url(#pa3408c3bbd)">
      <use style="fill:#9ac8e0;stroke:#9ac8e0;" x="144.190402" xlink:href="#C8_0_321d8c3394" y="93.689939"/>
     </g>
    </a>
    <a xlink:href="https://www.google.com/search?q=Dirichlet+molar">
     <g clip-path="url(#pa3408c3bbd)">
      <use style="fill:#9ac8e0;stroke:#9ac8e0;" x="553.910682" xlink:href="#C8_0_321d8c3394" y="-1130.751779"/>
     </g>
    </a>
   </g>
   <g id="matplotlib.axis_17"/>
   <g id="matplotlib.axis_18"/>
   <g id="text_11">
    <g id="patch_19">
     <path d="M 128.327722 107.060621 
L 160.053082 107.060621 
L 160.053082 80.319257 
L 128.327722 80.319257 
z
" style="fill:none;opacity:0;"/>
    </g>
    <!-- 9.0 -->
    <defs>
     <path d="M 35.203125 29.125 
C 35.203125 7.25 26.09375 0.484375 18.59375 0.484375 
C 16.296875 0.484375 10.703125 0.484375 8.40625 4.59375 
C 11 4.1875 12.90625 5.578125 12.90625 8.09375 
C 12.90625 10.8125 10.703125 11.703125 9.296875 11.703125 
C 8.40625 11.703125 5.703125 11.296875 5.703125 7.90625 
C 5.703125 1.109375 11.59375 -2 18.796875 -2 
C 30.296875 -2 42 10.53125 42 32.390625 
C 42 59.640625 30.796875 65.296875 23.203125 65.296875 
C 13.296875 65.296875 3.796875 56.6875 3.796875 43.40625 
C 3.796875 31.109375 11.90625 22 22.09375 22 
C 30.5 22 34.203125 29.734375 35.203125 33 
z
M 22.296875 23.59375 
C 19.59375 23.59375 15.796875 24.09375 12.703125 30.03125 
C 10.59375 33.890625 10.59375 38.453125 10.59375 43.296875 
C 10.59375 49.15625 10.59375 53.203125 13.40625 57.5625 
C 14.796875 59.640625 17.40625 63 23.203125 63 
C 35 63 35 45.078125 35 41.125 
C 35 34.09375 31.796875 23.59375 22.296875 23.59375 
z
" id="CMR17-57"/>
    </defs>
    <g transform="translate(133.727722 98.172557)scale(0.18 -0.18)">
     <use transform="scale(0.996264)" xlink:href="#CMR17-57"/>
     <use transform="translate(45.690477 0)scale(0.996264)" xlink:href="#CMR17-46"/>
     <use transform="translate(70.561536 0)scale(0.996264)" xlink:href="#CMR17-48"/>
    </g>
   </g>
  </g>
  <g id="axes_10">
   <g id="patch_20">
    <path d="M 172.870822 120.899755 
L 227.500192 120.899755 
L 227.500192 66.480123 
L 172.870822 66.480123 
z
" style="fill:#ffffff;"/>
   </g>
   <g id="PathCollection_10">
    <defs>
     <path d="M 0 158.113883 
C 41.932292 158.113883 82.152791 141.454007 111.803399 111.803399 
C 141.454007 82.152791 158.113883 41.932292 158.113883 0 
C 158.113883 -41.932292 141.454007 -82.152791 111.803399 -111.803399 
C 82.152791 -141.454007 41.932292 -158.113883 0 -158.113883 
C -41.932292 -158.113883 -82.152791 -141.454007 -111.803399 -111.803399 
C -141.454007 -82.152791 -158.113883 -41.932292 -158.113883 0 
C -158.113883 41.932292 -141.454007 82.152791 -111.803399 111.803399 
C -82.152791 141.454007 -41.932292 158.113883 0 158.113883 
z
" id="C9_0_96db1ad1c5"/>
    </defs>
    <a xlink:href="https://www.google.com/search?q=Weller+molar">
     <g clip-path="url(#p656a02ca7b)">
      <use style="fill:#caddf0;stroke:#caddf0;" x="200.185507" xlink:href="#C9_0_96db1ad1c5" y="93.689939"/>
     </g>
    </a>
    <a xlink:href="https://www.google.com/search?q=Weller+molar">
     <g clip-path="url(#p656a02ca7b)">
      <use style="fill:#caddf0;stroke:#caddf0;" x="609.905787" xlink:href="#C9_0_96db1ad1c5" y="-1130.751779"/>
     </g>
    </a>
   </g>
   <g id="matplotlib.axis_19"/>
   <g id="matplotlib.axis_20"/>
   <g id="text_12">
    <g id="patch_21">
     <path d="M 184.322827 107.060621 
L 216.048187 107.060621 
L 216.048187 80.319257 
L 184.322827 80.319257 
z
" style="fill:none;opacity:0;"/>
    </g>
    <!-- 5.5 -->
    <g transform="translate(189.722827 98.172557)scale(0.18 -0.18)">
     <use transform="scale(0.996264)" xlink:href="#CMR17-53"/>
     <use transform="translate(45.690477 0)scale(0.996264)" xlink:href="#CMR17-46"/>
     <use transform="translate(70.561536 0)scale(0.996264)" xlink:href="#CMR17-53"/>
    </g>
   </g>
  </g>
  <g id="axes_11">
   <g id="patch_22">
    <path d="M 228.865927 120.899755 
L 283.495297 120.899755 
L 283.495297 66.480123 
L 228.865927 66.480123 
z
" style="fill:#ffffff;"/>
   </g>
   <g id="PathCollection_11">
    <defs>
     <path d="M 0 158.113883 
C 41.932292 158.113883 82.152791 141.454007 111.803399 111.803399 
C 141.454007 82.152791 158.113883 41.932292 158.113883 0 
C 158.113883 -41.932292 141.454007 -82.152791 111.803399 -111.803399 
C 82.152791 -141.454007 41.932292 -158.113883 0 -158.113883 
C -41.932292 -158.113883 -82.152791 -141.454007 -111.803399 -111.803399 
C -141.454007 -82.152791 -158.113883 -41.932292 -158.113883 0 
C -158.113883 41.932292 -141.454007 82.152791 -111.803399 111.803399 
C -82.152791 141.454007 -41.932292 158.113883 0 158.113883 
z
" id="Ca_0_195f13b781"/>
    </defs>
    <a xlink:href="https://www.google.com/search?q=luminescent+molar">
     <g clip-path="url(#pb92c682fb6)">
      <use style="fill:#4997c9;stroke:#4997c9;" x="256.180612" xlink:href="#Ca_0_195f13b781" y="93.689939"/>
     </g>
    </a>
    <a xlink:href="https://www.google.com/search?q=luminescent+molar">
     <g clip-path="url(#pb92c682fb6)">
      <use style="fill:#4997c9;stroke:#4997c9;" x="665.900892" xlink:href="#Ca_0_195f13b781" y="-1130.751779"/>
     </g>
    </a>
   </g>
   <g id="matplotlib.axis_21"/>
   <g id="matplotlib.axis_22"/>
   <g id="text_13">
    <g id="patch_23">
     <path d="M 236.205789 107.060621 
L 276.155435 107.060621 
L 276.155435 80.319257 
L 236.205789 80.319257 
z
" style="fill:none;opacity:0;"/>
    </g>
    <!-- 14.2 -->
    <g style="fill:#ffffff;" transform="translate(241.605789 98.172557)scale(0.18 -0.18)">
     <use transform="scale(0.996264)" xlink:href="#CMR17-49"/>
     <use transform="translate(45.690477 0)scale(0.996264)" xlink:href="#CMR17-52"/>
     <use transform="translate(91.380954 0)scale(0.996264)" xlink:href="#CMR17-46"/>
     <use transform="translate(116.252013 0)scale(0.996264)" xlink:href="#CMR17-50"/>
    </g>
   </g>
  </g>
  <g id="axes_12">
   <g id="patch_24">
    <path d="M 284.861032 120.899755 
L 339.490402 120.899755 
L 339.490402 66.480123 
L 284.861032 66.480123 
z
" style="fill:#ffffff;"/>
   </g>
   <g id="PathCollection_12">
    <defs>
     <path d="M 0 158.113883 
C 41.932292 158.113883 82.152791 141.454007 111.803399 111.803399 
C 141.454007 82.152791 158.113883 41.932292 158.113883 0 
C 158.113883 -41.932292 141.454007 -82.152791 111.803399 -111.803399 
C 82.152791 -141.454007 41.932292 -158.113883 0 -158.113883 
C -41.932292 -158.113883 -82.152791 -141.454007 -111.803399 -111.803399 
C -141.454007 -82.152791 -158.113883 -41.932292 -158.113883 0 
C -158.113883 41.932292 -141.454007 82.152791 -111.803399 111.803399 
C -82.152791 141.454007 -41.932292 158.113883 0 158.113883 
z
" id="Cb_0_27bc2de968"/>
    </defs>
    <a xlink:href="https://www.google.com/search?q=solute+molar">
     <g clip-path="url(#pd342be9798)">
      <use style="fill:#bdd7ec;stroke:#bdd7ec;" x="312.175717" xlink:href="#Cb_0_27bc2de968" y="93.689939"/>
     </g>
    </a>
    <a xlink:href="https://www.google.com/search?q=solute+molar">
     <g clip-path="url(#pd342be9798)">
      <use style="fill:#bdd7ec;stroke:#bdd7ec;" x="721.895997" xlink:href="#Cb_0_27bc2de968" y="-1130.751779"/>
     </g>
    </a>
   </g>
   <g id="matplotlib.axis_23"/>
   <g id="matplotlib.axis_24"/>
   <g id="text_14">
    <g id="patch_25">
     <path d="M 296.313037 107.060621 
L 328.038397 107.060621 
L 328.038397 80.319257 
L 296.313037 80.319257 
z
" style="fill:none;opacity:0;"/>
    </g>
    <!-- 6.6 -->
    <g transform="translate(301.713037 98.172557)scale(0.18 -0.18)">
     <use transform="scale(0.996264)" xlink:href="#CMR17-54"/>
     <use transform="translate(45.690477 0)scale(0.996264)" xlink:href="#CMR17-46"/>
     <use transform="translate(70.561536 0)scale(0.996264)" xlink:href="#CMR17-54"/>
    </g>
   </g>
  </g>
  <g id="axes_13">
   <g id="patch_26">
    <path d="M 340.856137 120.899755 
L 395.485507 120.899755 
L 395.485507 66.480123 
L 340.856137 66.480123 
z
" style="fill:#ffffff;"/>
   </g>
   <g id="PathCollection_13">
    <defs>
     <path d="M 0 158.113883 
C 41.932292 158.113883 82.152791 141.454007 111.803399 111.803399 
C 141.454007 82.152791 158.113883 41.932292 158.113883 0 
C 158.113883 -41.932292 141.454007 -82.152791 111.803399 -111.803399 
C 82.152791 -141.454007 41.932292 -158.113883 0 -158.113883 
C -41.932292 -158.113883 -82.152791 -141.454007 -111.803399 -111.803399 
C -141.454007 -82.152791 -158.113883 -41.932292 -158.113883 0 
C -158.113883 41.932292 -141.454007 82.152791 -111.803399 111.803399 
C -82.152791 141.454007 -41.932292 158.113883 0 158.113883 
z
" id="Cc_0_1ea33b6e51"/>
    </defs>
    <a xlink:href="https://www.google.com/search?q=unital+molar">
     <g clip-path="url(#pa82e6cf73c)">
      <use style="fill:#e3eef8;stroke:#e3eef8;" x="368.170822" xlink:href="#Cc_0_1ea33b6e51" y="93.689939"/>
     </g>
    </a>
    <a xlink:href="https://www.google.com/search?q=unital+molar">
     <g clip-path="url(#pa82e6cf73c)">
      <use style="fill:#e3eef8;stroke:#e3eef8;" x="777.891102" xlink:href="#Cc_0_1ea33b6e51" y="-1130.751779"/>
     </g>
    </a>
   </g>
   <g id="matplotlib.axis_25"/>
   <g id="matplotlib.axis_26"/>
   <g id="text_15">
    <g id="patch_27">
     <path d="M 352.308142 107.060621 
L 384.033502 107.060621 
L 384.033502 80.319257 
L 352.308142 80.319257 
z
" style="fill:none;opacity:0;"/>
    </g>
    <!-- 2.5 -->
    <g transform="translate(357.708142 98.172557)scale(0.18 -0.18)">
     <use transform="scale(0.996264)" xlink:href="#CMR17-50"/>
     <use transform="translate(45.690477 0)scale(0.996264)" xlink:href="#CMR17-46"/>
     <use transform="translate(70.561536 0)scale(0.996264)" xlink:href="#CMR17-53"/>
    </g>
   </g>
  </g>
  <g id="axes_14">
   <g id="patch_28">
    <path d="M 396.851241 120.899755 
L 451.480612 120.899755 
L 451.480612 66.480123 
L 396.851241 66.480123 
z
" style="fill:#ffffff;"/>
   </g>
   <g id="PathCollection_14">
    <defs>
     <path d="M 0 158.113883 
C 41.932292 158.113883 82.152791 141.454007 111.803399 111.803399 
C 141.454007 82.152791 158.113883 41.932292 158.113883 0 
C 158.113883 -41.932292 141.454007 -82.152791 111.803399 -111.803399 
C 82.152791 -141.454007 41.932292 -158.113883 0 -158.113883 
C -41.932292 -158.113883 -82.152791 -141.454007 -111.803399 -111.803399 
C -141.454007 -82.152791 -158.113883 -41.932292 -158.113883 0 
C -158.113883 41.932292 -141.454007 82.152791 -111.803399 111.803399 
C -82.152791 141.454007 -41.932292 158.113883 0 158.113883 
z
" id="Cd_0_a172ce9d40"/>
    </defs>
    <a xlink:href="https://www.google.com/search?q=Schofield+molar">
     <g clip-path="url(#p67722b7139)">
      <use style="fill:#a0cbe2;stroke:#a0cbe2;" x="424.165927" xlink:href="#Cd_0_a172ce9d40" y="93.689939"/>
     </g>
    </a>
    <a xlink:href="https://www.google.com/search?q=Schofield+molar">
     <g clip-path="url(#p67722b7139)">
      <use style="fill:#a0cbe2;stroke:#a0cbe2;" x="833.886206" xlink:href="#Cd_0_a172ce9d40" y="-1130.751779"/>
     </g>
    </a>
   </g>
   <g id="matplotlib.axis_27"/>
   <g id="matplotlib.axis_28"/>
   <g id="text_16">
    <g id="patch_29">
     <path d="M 408.303247 107.060621 
L 440.028607 107.060621 
L 440.028607 80.319257 
L 408.303247 80.319257 
z
" style="fill:none;opacity:0;"/>
    </g>
    <!-- 8.7 -->
    <g transform="translate(413.703247 98.172557)scale(0.18 -0.18)">
     <use transform="scale(0.996264)" xlink:href="#CMR17-56"/>
     <use transform="translate(45.690477 0)scale(0.996264)" xlink:href="#CMR17-46"/>
     <use transform="translate(70.561536 0)scale(0.996264)" xlink:href="#CMR17-55"/>
    </g>
   </g>
  </g>
  <g id="axes_15">
   <g id="patch_30">
    <path d="M 60.880612 176.679877 
L 115.509983 176.679877 
L 115.509983 122.260245 
L 60.880612 122.260245 
z
" style="fill:#ffffff;"/>
   </g>
   <g id="PathCollection_15">
    <defs>
     <path d="M 0 158.113883 
C 41.932292 158.113883 82.152791 141.454007 111.803399 111.803399 
C 141.454007 82.152791 158.113883 41.932292 158.113883 0 
C 158.113883 -41.932292 141.454007 -82.152791 111.803399 -111.803399 
C 82.152791 -141.454007 41.932292 -158.113883 0 -158.113883 
C -41.932292 -158.113883 -82.152791 -141.454007 -111.803399 -111.803399 
C -141.454007 -82.152791 -158.113883 -41.932292 -158.113883 0 
C -158.113883 41.932292 -141.454007 82.152791 -111.803399 111.803399 
C -82.152791 141.454007 -41.932292 158.113883 0 158.113883 
z
" id="Ce_0_eeb3c5aff7"/>
    </defs>
    <a xlink:href="https://www.google.com/search?q=amaze+Skye">
     <g clip-path="url(#p997b97ffbe)">
      <use style="fill:#8dc1dd;stroke:#8dc1dd;" x="88.195297" xlink:href="#Ce_0_eeb3c5aff7" y="149.470061"/>
     </g>
    </a>
    <a xlink:href="https://www.google.com/search?q=amaze+Skye">
     <g clip-path="url(#p997b97ffbe)">
      <use style="fill:#8dc1dd;stroke:#8dc1dd;" x="497.915577" xlink:href="#Ce_0_eeb3c5aff7" y="-1074.971656"/>
     </g>
    </a>
   </g>
   <g id="matplotlib.axis_29"/>
   <g id="matplotlib.axis_30">
    <g id="ytick_3">
     <g id="line2d_3">
      <g>
       <use style="stroke:#000000;stroke-width:0.8;" x="60.880612" xlink:href="#mceaac14008" y="149.470061"/>
      </g>
     </g>
     <g id="text_17">
      <!-- Skye -->
      <defs>
       <path d="M 43.796875 67.03125 
C 43.796875 68.8125 43.703125 68.921875 43.09375 68.921875 
C 42.5 68.921875 42.296875 68.515625 41.90625 67.625 
L 38.90625 61.046875 
C 35.09375 66.515625 29.296875 69 23 69 
C 12.796875 69 4.59375 60.953125 4.59375 50.828125 
C 4.59375 47.75 5.296875 43.375 8.703125 39.21875 
C 12.40625 34.65625 15.90625 33.859375 23.90625 31.765625 
C 26.90625 30.96875 31.90625 29.671875 32.90625 29.28125 
C 38.59375 26.90625 41.59375 20.953125 41.59375 15.390625 
C 41.59375 8.234375 36.5 0.59375 27.796875 0.59375 
C 17.09375 0.59375 7.09375 6.546875 6.40625 20.484375 
C 6.296875 22.078125 6.203125 22.171875 5.5 22.171875 
C 4.703125 22.171875 4.59375 22.078125 4.59375 20.078125 
L 4.59375 -0.015625 
C 4.59375 -1.796875 4.703125 -1.90625 5.296875 -1.90625 
C 6 -1.90625 6.203125 -1.40625 7.59375 1.6875 
C 7.703125 1.984375 7.703125 2.1875 9.59375 5.953125 
C 14.59375 -0.609375 23 -2 27.796875 -2 
C 38.703125 -2 46.40625 7.046875 46.40625 17.5625 
C 46.40625 22.71875 44.5 26.6875 43.40625 28.484375 
C 39.203125 34.84375 34.703125 36.03125 29.90625 37.21875 
C 29.203125 37.53125 29 37.53125 23.40625 38.90625 
C 18 40.296875 15.703125 41 13.203125 43.6875 
C 10.40625 46.75 9.40625 49.9375 9.40625 53.109375 
C 9.40625 59.5625 14.59375 66.609375 23.09375 66.609375 
C 33.703125 66.609375 40.296875 59.15625 41.796875 46.765625 
C 42.09375 44.96875 42.203125 44.875 42.90625 44.875 
C 43.796875 44.875 43.796875 45.171875 43.796875 46.859375 
z
" id="CMR17-83"/>
       <path d="M 26.09375 26.140625 
C 26 26.34375 25.5 26.9375 25.5 27.234375 
C 25.5 27.4375 32.59375 33.921875 33.5 34.71875 
C 39.203125 39.5 42.796875 40 45.40625 40 
L 45.40625 42.703125 
C 44.796875 42.703125 44.59375 42.703125 44.5 42.5 
L 39.59375 42.5 
C 36.796875 42.5 32.5 42.5 29.796875 42.703125 
L 29.796875 40.09375 
C 31.203125 39.984375 32.203125 39.1875 32.203125 37.796875 
C 32.203125 35.796875 30.203125 33.90625 30.09375 33.90625 
L 15 20.140625 
L 15 68.6875 
L 3.09375 67.59375 
L 3.09375 65 
C 9 65 9.90625 64.40625 9.90625 59.640625 
L 9.90625 6.65625 
C 9.90625 2.875 9.5 2.390625 3.09375 2.390625 
L 3.09375 -0.203125 
C 5.5 0 9.90625 0 12.40625 0 
C 14.90625 0 19.296875 0 21.703125 -0.203125 
L 21.703125 2.390625 
C 15.296875 2.390625 14.90625 2.78125 14.90625 6.6875 
L 14.90625 17.65625 
L 21.796875 23.9375 
L 31.90625 8.96875 
C 33.09375 7.171875 34.09375 5.765625 34.09375 4.46875 
C 34.09375 2.6875 32.296875 2.390625 31.09375 2.390625 
L 31.09375 -0.203125 
C 33.5 0 37.796875 0 40.296875 0 
C 42.09375 0 45.796875 0 47.5 0 
L 47.5 2.390625 
C 42.796875 2.390625 41.703125 3.28125 38.703125 7.671875 
z
" id="CMR17-107"/>
       <path d="M 39 34.328125 
C 41.5 40.40625 46 40.40625 47.40625 40.40625 
L 47.40625 43 
C 45.5 43 43 43 41.09375 43 
C 39 43 35.703125 43 33.703125 43.09375 
L 33.703125 40.5 
C 37.5 40.203125 37.59375 37.40625 37.59375 36.609375 
C 37.59375 35.625 37.40625 35.125 36.90625 33.921875 
L 26 7.015625 
L 14.09375 36.03125 
C 13.59375 37.21875 13.59375 37.90625 13.59375 38.015625 
C 13.59375 40.203125 15.90625 40.40625 18.296875 40.40625 
L 18.296875 43.09375 
C 15.90625 43 11.59375 43 9.09375 43 
C 6.40625 43 3.203125 43 1 43.09375 
L 1 40.40625 
C 6.40625 40.40625 7 39.90625 8.296875 36.71875 
L 23.203125 0.234375 
C 18.703125 -11.53125 16.09375 -18.40625 9.796875 -18.40625 
C 8.703125 -18.40625 6.203125 -18.109375 4.40625 -16.3125 
C 6.703125 -16.109375 7.703125 -14.71875 7.703125 -13.015625 
C 7.703125 -11.328125 6.5 -9.828125 4.5 -9.828125 
C 2.296875 -9.828125 1.203125 -11.328125 1.203125 -13.125 
C 1.203125 -17.109375 5.296875 -20 9.796875 -20 
C 15.59375 -20 19.203125 -14.40625 21.203125 -9.4375 
z
" id="CMR17-121"/>
      </defs>
      <g transform="translate(27.821167 175.642235)rotate(-45)scale(0.18 -0.18)">
       <use transform="scale(0.996264)" xlink:href="#CMR17-83"/>
       <use transform="translate(50.89537 0)scale(0.996264)" xlink:href="#CMR17-107"/>
       <use transform="translate(99.188286 0)scale(0.996264)" xlink:href="#CMR17-121"/>
       <use transform="translate(144.878748 0)scale(0.996264)" xlink:href="#CMR17-101"/>
      </g>
     </g>
    </g>
   </g>
   <g id="text_18">
    <g id="patch_31">
     <path d="M 72.332617 162.840743 
L 104.057977 162.840743 
L 104.057977 136.099379 
L 72.332617 136.099379 
z
" style="fill:none;opacity:0;"/>
    </g>
    <!-- 9.8 -->
    <g style="fill:#ffffff;" transform="translate(77.732617 153.952679)scale(0.18 -0.18)">
     <use transform="scale(0.996264)" xlink:href="#CMR17-57"/>
     <use transform="translate(45.690477 0)scale(0.996264)" xlink:href="#CMR17-46"/>
     <use transform="translate(70.561536 0)scale(0.996264)" xlink:href="#CMR17-56"/>
    </g>
   </g>
  </g>
  <g id="axes_16">
   <g id="patch_32">
    <path d="M 116.875717 176.679877 
L 171.505088 176.679877 
L 171.505088 122.260245 
L 116.875717 122.260245 
z
" style="fill:#ffffff;"/>
   </g>
   <g id="PathCollection_16">
    <defs>
     <path d="M 0 158.113883 
C 41.932292 158.113883 82.152791 141.454007 111.803399 111.803399 
C 141.454007 82.152791 158.113883 41.932292 158.113883 0 
C 158.113883 -41.932292 141.454007 -82.152791 111.803399 -111.803399 
C 82.152791 -141.454007 41.932292 -158.113883 0 -158.113883 
C -41.932292 -158.113883 -82.152791 -141.454007 -111.803399 -111.803399 
C -141.454007 -82.152791 -158.113883 -41.932292 -158.113883 0 
C -158.113883 41.932292 -141.454007 82.152791 -111.803399 111.803399 
C -82.152791 141.454007 -41.932292 158.113883 0 158.113883 
z
" id="Cf_0_681061b0a0"/>
    </defs>
    <a xlink:href="https://www.google.com/search?q=Dirichlet+Skye">
     <g clip-path="url(#pd61860d1a4)">
      <use style="fill:#2c7cba;stroke:#2c7cba;" x="144.190402" xlink:href="#Cf_0_681061b0a0" y="149.470061"/>
     </g>
    </a>
    <a xlink:href="https://www.google.com/search?q=Dirichlet+Skye">
     <g clip-path="url(#pd61860d1a4)">
      <use style="fill:#2c7cba;stroke:#2c7cba;" x="553.910682" xlink:href="#Cf_0_681061b0a0" y="-1074.971656"/>
     </g>
    </a>
   </g>
   <g id="matplotlib.axis_31"/>
   <g id="matplotlib.axis_32"/>
   <g id="text_19">
    <g id="patch_33">
     <path d="M 124.215579 162.840743 
L 164.165225 162.840743 
L 164.165225 136.099379 
L 124.215579 136.099379 
z
" style="fill:none;opacity:0;"/>
    </g>
    <!-- 16.6 -->
    <g style="fill:#ffffff;" transform="translate(129.615579 153.952679)scale(0.18 -0.18)">
     <use transform="scale(0.996264)" xlink:href="#CMR17-49"/>
     <use transform="translate(45.690477 0)scale(0.996264)" xlink:href="#CMR17-54"/>
     <use transform="translate(91.380954 0)scale(0.996264)" xlink:href="#CMR17-46"/>
     <use transform="translate(116.252013 0)scale(0.996264)" xlink:href="#CMR17-54"/>
    </g>
   </g>
  </g>
  <g id="axes_17">
   <g id="patch_34">
    <path d="M 172.870822 176.679877 
L 227.500192 176.679877 
L 227.500192 122.260245 
L 172.870822 122.260245 
z
" style="fill:#ffffff;"/>
   </g>
   <g id="PathCollection_17">
    <defs>
     <path d="M 0 158.113883 
C 41.932292 158.113883 82.152791 141.454007 111.803399 111.803399 
C 141.454007 82.152791 158.113883 41.932292 158.113883 0 
C 158.113883 -41.932292 141.454007 -82.152791 111.803399 -111.803399 
C 82.152791 -141.454007 41.932292 -158.113883 0 -158.113883 
C -41.932292 -158.113883 -82.152791 -141.454007 -111.803399 -111.803399 
C -141.454007 -82.152791 -158.113883 -41.932292 -158.113883 0 
C -158.113883 41.932292 -141.454007 82.152791 -111.803399 111.803399 
C -82.152791 141.454007 -41.932292 158.113883 0 158.113883 
z
" id="C10_0_72824122ed"/>
    </defs>
    <a xlink:href="https://www.google.com/search?q=Weller+Skye">
     <g clip-path="url(#p66ae11c3bd)">
      <use style="fill:#f1f7fd;stroke:#f1f7fd;" x="200.185507" xlink:href="#C10_0_72824122ed" y="149.470061"/>
     </g>
    </a>
    <a xlink:href="https://www.google.com/search?q=Weller+Skye">
     <g clip-path="url(#p66ae11c3bd)">
      <use style="fill:#f1f7fd;stroke:#f1f7fd;" x="609.905787" xlink:href="#C10_0_72824122ed" y="-1074.971656"/>
     </g>
    </a>
   </g>
   <g id="matplotlib.axis_33"/>
   <g id="matplotlib.axis_34"/>
   <g id="text_20">
    <g id="patch_35">
     <path d="M 184.322827 162.840743 
L 216.048187 162.840743 
L 216.048187 136.099379 
L 184.322827 136.099379 
z
" style="fill:none;opacity:0;"/>
    </g>
    <!-- 0.9 -->
    <g transform="translate(189.722827 153.952679)scale(0.18 -0.18)">
     <use transform="scale(0.996264)" xlink:href="#CMR17-48"/>
     <use transform="translate(45.690477 0)scale(0.996264)" xlink:href="#CMR17-46"/>
     <use transform="translate(70.561536 0)scale(0.996264)" xlink:href="#CMR17-57"/>
    </g>
   </g>
  </g>
  <g id="axes_18">
   <g id="patch_36">
    <path d="M 228.865927 176.679877 
L 283.495297 176.679877 
L 283.495297 122.260245 
L 228.865927 122.260245 
z
" style="fill:#ffffff;"/>
   </g>
   <g id="PathCollection_18">
    <defs>
     <path d="M 0 158.113883 
C 41.932292 158.113883 82.152791 141.454007 111.803399 111.803399 
C 141.454007 82.152791 158.113883 41.932292 158.113883 0 
C 158.113883 -41.932292 141.454007 -82.152791 111.803399 -111.803399 
C 82.152791 -141.454007 41.932292 -158.113883 0 -158.113883 
C -41.932292 -158.113883 -82.152791 -141.454007 -111.803399 -111.803399 
C -141.454007 -82.152791 -158.113883 -41.932292 -158.113883 0 
C -158.113883 41.932292 -141.454007 82.152791 -111.803399 111.803399 
C -82.152791 141.454007 -41.932292 158.113883 0 158.113883 
z
" id="C11_0_80621cee9f"/>
    </defs>
    <a xlink:href="https://www.google.com/search?q=luminescent+Skye">
     <g clip-path="url(#p7dc27b9a5f)">
      <use style="fill:#f7fbff;stroke:#f7fbff;" x="256.180612" xlink:href="#C11_0_80621cee9f" y="149.470061"/>
     </g>
    </a>
    <a xlink:href="https://www.google.com/search?q=luminescent+Skye">
     <g clip-path="url(#p7dc27b9a5f)">
      <use style="fill:#f7fbff;stroke:#f7fbff;" x="665.900892" xlink:href="#C11_0_80621cee9f" y="-1074.971656"/>
     </g>
    </a>
   </g>
   <g id="matplotlib.axis_35"/>
   <g id="matplotlib.axis_36"/>
   <g id="text_21">
    <g id="patch_37">
     <path d="M 240.317932 162.840743 
L 272.043292 162.840743 
L 272.043292 136.099379 
L 240.317932 136.099379 
z
" style="fill:none;opacity:0;"/>
    </g>
    <!-- 0.1 -->
    <g transform="translate(245.717932 153.952679)scale(0.18 -0.18)">
     <use transform="scale(0.996264)" xlink:href="#CMR17-48"/>
     <use transform="translate(45.690477 0)scale(0.996264)" xlink:href="#CMR17-46"/>
     <use transform="translate(70.561536 0)scale(0.996264)" xlink:href="#CMR17-49"/>
    </g>
   </g>
  </g>
  <g id="axes_19">
   <g id="patch_38">
    <path d="M 284.861032 176.679877 
L 339.490402 176.679877 
L 339.490402 122.260245 
L 284.861032 122.260245 
z
" style="fill:#ffffff;"/>
   </g>
   <g id="PathCollection_19">
    <defs>
     <path d="M 0 158.113883 
C 41.932292 158.113883 82.152791 141.454007 111.803399 111.803399 
C 141.454007 82.152791 158.113883 41.932292 158.113883 0 
C 158.113883 -41.932292 141.454007 -82.152791 111.803399 -111.803399 
C 82.152791 -141.454007 41.932292 -158.113883 0 -158.113883 
C -41.932292 -158.113883 -82.152791 -141.454007 -111.803399 -111.803399 
C -141.454007 -82.152791 -158.113883 -41.932292 -158.113883 0 
C -158.113883 41.932292 -141.454007 82.152791 -111.803399 111.803399 
C -82.152791 141.454007 -41.932292 158.113883 0 158.113883 
z
" id="C12_0_a46fb34961"/>
    </defs>
    <a xlink:href="https://www.google.com/search?q=solute+Skye">
     <g clip-path="url(#p5615e13e62)">
      <use style="fill:#79b5d9;stroke:#79b5d9;" x="312.175717" xlink:href="#C12_0_a46fb34961" y="149.470061"/>
     </g>
    </a>
    <a xlink:href="https://www.google.com/search?q=solute+Skye">
     <g clip-path="url(#p5615e13e62)">
      <use style="fill:#79b5d9;stroke:#79b5d9;" x="721.895997" xlink:href="#C12_0_a46fb34961" y="-1074.971656"/>
     </g>
    </a>
   </g>
   <g id="matplotlib.axis_37"/>
   <g id="matplotlib.axis_38"/>
   <g id="text_22">
    <g id="patch_39">
     <path d="M 292.200894 162.840743 
L 332.15054 162.840743 
L 332.15054 136.099379 
L 292.200894 136.099379 
z
" style="fill:none;opacity:0;"/>
    </g>
    <!-- 10.9 -->
    <g style="fill:#ffffff;" transform="translate(297.600894 153.952679)scale(0.18 -0.18)">
     <use transform="scale(0.996264)" xlink:href="#CMR17-49"/>
     <use transform="translate(45.690477 0)scale(0.996264)" xlink:href="#CMR17-48"/>
     <use transform="translate(91.380954 0)scale(0.996264)" xlink:href="#CMR17-46"/>
     <use transform="translate(116.252013 0)scale(0.996264)" xlink:href="#CMR17-57"/>
    </g>
   </g>
  </g>
  <g id="axes_20">
   <g id="patch_40">
    <path d="M 340.856137 176.679877 
L 395.485507 176.679877 
L 395.485507 122.260245 
L 340.856137 122.260245 
z
" style="fill:#ffffff;"/>
   </g>
   <g id="PathCollection_20">
    <defs>
     <path d="M 0 158.113883 
C 41.932292 158.113883 82.152791 141.454007 111.803399 111.803399 
C 141.454007 82.152791 158.113883 41.932292 158.113883 0 
C 158.113883 -41.932292 141.454007 -82.152791 111.803399 -111.803399 
C 82.152791 -141.454007 41.932292 -158.113883 0 -158.113883 
C -41.932292 -158.113883 -82.152791 -141.454007 -111.803399 -111.803399 
C -141.454007 -82.152791 -158.113883 -41.932292 -158.113883 0 
C -158.113883 41.932292 -141.454007 82.152791 -111.803399 111.803399 
C -82.152791 141.454007 -41.932292 158.113883 0 158.113883 
z
" id="C13_0_7a2633a953"/>
    </defs>
    <a xlink:href="https://www.google.com/search?q=unital+Skye">
     <g clip-path="url(#p736f5629c6)">
      <use style="fill:#dbe9f6;stroke:#dbe9f6;" x="368.170822" xlink:href="#C13_0_7a2633a953" y="149.470061"/>
     </g>
    </a>
    <a xlink:href="https://www.google.com/search?q=unital+Skye">
     <g clip-path="url(#p736f5629c6)">
      <use style="fill:#dbe9f6;stroke:#dbe9f6;" x="777.891102" xlink:href="#C13_0_7a2633a953" y="-1074.971656"/>
     </g>
    </a>
   </g>
   <g id="matplotlib.axis_39"/>
   <g id="matplotlib.axis_40"/>
   <g id="text_23">
    <g id="patch_41">
     <path d="M 352.308142 162.840743 
L 384.033502 162.840743 
L 384.033502 136.099379 
L 352.308142 136.099379 
z
" style="fill:none;opacity:0;"/>
    </g>
    <!-- 3.4 -->
    <g transform="translate(357.708142 153.952679)scale(0.18 -0.18)">
     <use transform="scale(0.996264)" xlink:href="#CMR17-51"/>
     <use transform="translate(45.690477 0)scale(0.996264)" xlink:href="#CMR17-46"/>
     <use transform="translate(70.561536 0)scale(0.996264)" xlink:href="#CMR17-52"/>
    </g>
   </g>
  </g>
  <g id="axes_21">
   <g id="patch_42">
    <path d="M 396.851241 176.679877 
L 451.480612 176.679877 
L 451.480612 122.260245 
L 396.851241 122.260245 
z
" style="fill:#ffffff;"/>
   </g>
   <g id="PathCollection_21">
    <defs>
     <path d="M 0 158.113883 
C 41.932292 158.113883 82.152791 141.454007 111.803399 111.803399 
C 141.454007 82.152791 158.113883 41.932292 158.113883 0 
C 158.113883 -41.932292 141.454007 -82.152791 111.803399 -111.803399 
C 82.152791 -141.454007 41.932292 -158.113883 0 -158.113883 
C -41.932292 -158.113883 -82.152791 -141.454007 -111.803399 -111.803399 
C -141.454007 -82.152791 -158.113883 -41.932292 -158.113883 0 
C -158.113883 41.932292 -141.454007 82.152791 -111.803399 111.803399 
C -82.152791 141.454007 -41.932292 158.113883 0 158.113883 
z
" id="C14_0_bf94da6445"/>
    </defs>
    <a xlink:href="https://www.google.com/search?q=Schofield+Skye">
     <g clip-path="url(#p6a753a4a6d)">
      <use style="fill:#e4eff9;stroke:#e4eff9;" x="424.165927" xlink:href="#C14_0_bf94da6445" y="149.470061"/>
     </g>
    </a>
    <a xlink:href="https://www.google.com/search?q=Schofield+Skye">
     <g clip-path="url(#p6a753a4a6d)">
      <use style="fill:#e4eff9;stroke:#e4eff9;" x="833.886206" xlink:href="#C14_0_bf94da6445" y="-1074.971656"/>
     </g>
    </a>
   </g>
   <g id="matplotlib.axis_41"/>
   <g id="matplotlib.axis_42"/>
   <g id="text_24">
    <g id="patch_43">
     <path d="M 408.303247 162.840743 
L 440.028607 162.840743 
L 440.028607 136.099379 
L 408.303247 136.099379 
z
" style="fill:none;opacity:0;"/>
    </g>
    <!-- 2.3 -->
    <g transform="translate(413.703247 153.952679)scale(0.18 -0.18)">
     <use transform="scale(0.996264)" xlink:href="#CMR17-50"/>
     <use transform="translate(45.690477 0)scale(0.996264)" xlink:href="#CMR17-46"/>
     <use transform="translate(70.561536 0)scale(0.996264)" xlink:href="#CMR17-51"/>
    </g>
   </g>
  </g>
  <g id="axes_22">
   <g id="patch_44">
    <path d="M 60.880612 232.46 
L 115.509983 232.46 
L 115.509983 178.040368 
L 60.880612 178.040368 
z
" style="fill:#ffffff;"/>
   </g>
   <g id="PathCollection_22">
    <defs>
     <path d="M 0 158.113883 
C 41.932292 158.113883 82.152791 141.454007 111.803399 111.803399 
C 141.454007 82.152791 158.113883 41.932292 158.113883 0 
C 158.113883 -41.932292 141.454007 -82.152791 111.803399 -111.803399 
C 82.152791 -141.454007 41.932292 -158.113883 0 -158.113883 
C -41.932292 -158.113883 -82.152791 -141.454007 -111.803399 -111.803399 
C -141.454007 -82.152791 -158.113883 -41.932292 -158.113883 0 
C -158.113883 41.932292 -141.454007 82.152791 -111.803399 111.803399 
C -82.152791 141.454007 -41.932292 158.113883 0 158.113883 
z
" id="C15_0_a01c24c239"/>
    </defs>
    <a xlink:href="https://www.google.com/search?q=amaze+factory">
     <g clip-path="url(#pc4342772c2)">
      <use style="fill:#deebf7;stroke:#deebf7;" x="88.195297" xlink:href="#C15_0_a01c24c239" y="205.250184"/>
     </g>
    </a>
    <a xlink:href="https://www.google.com/search?q=amaze+factory">
     <g clip-path="url(#pc4342772c2)">
      <use style="fill:#deebf7;stroke:#deebf7;" x="497.915577" xlink:href="#C15_0_a01c24c239" y="-1019.191534"/>
     </g>
    </a>
   </g>
   <g id="matplotlib.axis_43">
    <g id="xtick_1">
     <g id="line2d_4">
      <defs>
       <path d="M 0 0 
L 0 3.5 
" id="m27f363dadc" style="stroke:#000000;stroke-width:0.8;"/>
      </defs>
      <g>
       <use style="stroke:#000000;stroke-width:0.8;" x="88.195297" xlink:href="#m27f363dadc" y="232.46"/>
      </g>
     </g>
     <g id="text_25">
      <!-- amaze -->
      <defs>
       <path d="M 36.09375 40.703125 
C 36.90625 41.71875 36.90625 41.90625 36.90625 42.109375 
C 36.90625 43 36.5 43 34.703125 43 
L 4.296875 43 
L 3.296875 27.5 
L 5.09375 27.5 
C 5.796875 37.203125 6.90625 41.40625 18.40625 41.40625 
L 30.59375 41.40625 
L 2 1.5 
C 2 0 2.09375 0 4.203125 0 
L 35.796875 0 
L 37.203125 18 
L 35.40625 18 
C 34.59375 6.90625 33.296875 1.796875 21.09375 1.796875 
L 8.296875 1.796875 
z
" id="CMR17-122"/>
      </defs>
      <g transform="translate(54.001741 279.992936)rotate(-45)scale(0.18 -0.18)">
       <use transform="scale(0.996264)" xlink:href="#CMR17-97"/>
       <use transform="translate(45.690477 0)scale(0.996264)" xlink:href="#CMR17-109"/>
       <use transform="translate(122.610067 0)scale(0.996264)" xlink:href="#CMR17-97"/>
       <use transform="translate(168.300544 0)scale(0.996264)" xlink:href="#CMR17-122"/>
       <use transform="translate(208.786205 0)scale(0.996264)" xlink:href="#CMR17-101"/>
      </g>
     </g>
    </g>
   </g>
   <g id="matplotlib.axis_44">
    <g id="ytick_4">
     <g id="line2d_5">
      <g>
       <use style="stroke:#000000;stroke-width:0.8;" x="60.880612" xlink:href="#mceaac14008" y="205.250184"/>
      </g>
     </g>
     <g id="text_26">
      <!-- factory -->
      <defs>
       <path d="M 15.296875 40 
L 26.703125 40 
L 26.703125 42.578125 
L 15.09375 42.578125 
L 15.09375 54.59375 
C 15.09375 62.84375 19.296875 68 23.59375 68 
C 24.90625 68 26.40625 67.609375 27.40625 66.90625 
C 26.59375 66.703125 24.5 66.015625 24.5 63.546875 
C 24.5 60.953125 26.5 60.15625 27.90625 60.15625 
C 29.296875 60.15625 31.296875 60.953125 31.296875 63.546875 
C 31.296875 67.3125 27.703125 69.59375 23.703125 69.59375 
C 18 69.59375 10.203125 64.9375 10.203125 54.390625 
L 10.203125 42.578125 
L 2.203125 42.578125 
L 2.203125 40 
L 10.203125 40 
L 10.203125 6.671875 
C 10.203125 2.875 9.796875 2.390625 3.40625 2.390625 
L 3.40625 -0.203125 
C 5.796875 0 10.40625 0 13 0 
C 15.90625 0 21 0 23.703125 -0.203125 
L 23.703125 2.390625 
C 16.5 2.390625 15.296875 2.390625 15.296875 6.859375 
z
" id="CMR17-102"/>
       <path d="M 34.90625 35 
C 33 35 30.203125 35 30.203125 31.515625 
C 30.203125 28.71875 32.5 27.921875 33.796875 27.921875 
C 34.5 27.921875 37.40625 28.234375 37.40625 31.625 
C 37.40625 38.546875 30.59375 43.796875 22.90625 43.796875 
C 12.296875 43.796875 3.296875 34.03125 3.296875 21.296875 
C 3.296875 8.0625 12.703125 -1 22.90625 -1 
C 35.296875 -1 38.40625 10.578125 38.40625 11.6875 
C 38.40625 12.09375 38.296875 12.390625 37.59375 12.390625 
C 36.90625 12.390625 36.796875 12.296875 36.40625 10.984375 
C 33.796875 2.8125 28.09375 0.796875 23.796875 0.796875 
C 17.40625 0.796875 9.703125 6.671875 9.703125 21.390625 
C 9.703125 36.53125 17.09375 42 23 42 
C 26.90625 42 32.703125 40.203125 34.90625 35 
z
" id="CMR17-99"/>
      </defs>
      <g transform="translate(16.005813 243.237712)rotate(-45)scale(0.18 -0.18)">
       <use transform="scale(0.996264)" xlink:href="#CMR17-102"/>
       <use transform="translate(27.473512 0)scale(0.996264)" xlink:href="#CMR17-97"/>
       <use transform="translate(73.16399 0)scale(0.996264)" xlink:href="#CMR17-99"/>
       <use transform="translate(113.64965 0)scale(0.996264)" xlink:href="#CMR17-116"/>
       <use transform="translate(148.930418 0)scale(0.996264)" xlink:href="#CMR17-111"/>
       <use transform="translate(194.620895 0)scale(0.996264)" xlink:href="#CMR17-114"/>
       <use transform="translate(229.901663 0)scale(0.996264)" xlink:href="#CMR17-121"/>
      </g>
     </g>
    </g>
   </g>
   <g id="text_27">
    <g id="patch_45">
     <path d="M 72.332617 218.620866 
L 104.057977 218.620866 
L 104.057977 191.879502 
L 72.332617 191.879502 
z
" style="fill:none;opacity:0;"/>
    </g>
    <!-- 3.1 -->
    <g transform="translate(77.732617 209.732802)scale(0.18 -0.18)">
     <use transform="scale(0.996264)" xlink:href="#CMR17-51"/>
     <use transform="translate(45.690477 0)scale(0.996264)" xlink:href="#CMR17-46"/>
     <use transform="translate(70.561536 0)scale(0.996264)" xlink:href="#CMR17-49"/>
    </g>
   </g>
  </g>
  <g id="axes_23">
   <g id="patch_46">
    <path d="M 116.875717 232.46 
L 171.505088 232.46 
L 171.505088 178.040368 
L 116.875717 178.040368 
z
" style="fill:#ffffff;"/>
   </g>
   <g id="PathCollection_23">
    <defs>
     <path d="M 0 158.113883 
C 41.932292 158.113883 82.152791 141.454007 111.803399 111.803399 
C 141.454007 82.152791 158.113883 41.932292 158.113883 0 
C 158.113883 -41.932292 141.454007 -82.152791 111.803399 -111.803399 
C 82.152791 -141.454007 41.932292 -158.113883 0 -158.113883 
C -41.932292 -158.113883 -82.152791 -141.454007 -111.803399 -111.803399 
C -141.454007 -82.152791 -158.113883 -41.932292 -158.113883 0 
C -158.113883 41.932292 -141.454007 82.152791 -111.803399 111.803399 
C -82.152791 141.454007 -41.932292 158.113883 0 158.113883 
z
" id="C16_0_63d1c0c0b7"/>
    </defs>
    <a xlink:href="https://www.google.com/search?q=Dirichlet+factory">
     <g clip-path="url(#p141084841a)">
      <use style="fill:#81badb;stroke:#81badb;" x="144.190402" xlink:href="#C16_0_63d1c0c0b7" y="205.250184"/>
     </g>
    </a>
    <a xlink:href="https://www.google.com/search?q=Dirichlet+factory">
     <g clip-path="url(#p141084841a)">
      <use style="fill:#81badb;stroke:#81badb;" x="553.910682" xlink:href="#C16_0_63d1c0c0b7" y="-1019.191534"/>
     </g>
    </a>
   </g>
   <g id="matplotlib.axis_45">
    <g id="xtick_2">
     <g id="line2d_6">
      <g>
       <use style="stroke:#000000;stroke-width:0.8;" x="144.190402" xlink:href="#m27f363dadc" y="232.46"/>
      </g>
     </g>
     <g id="text_28">
      <!-- Dirichlet -->
      <defs>
       <path d="M 5.203125 68 
L 5.203125 65.40625 
C 12.09375 65.40625 13.203125 65.40625 13.203125 60.9375 
L 13.203125 7.0625 
C 13.203125 2.59375 12.09375 2.59375 5.203125 2.59375 
L 5.203125 0 
L 37 0 
C 53.09375 0 66 14.734375 66 33.453125 
C 66 52.28125 53.296875 68 37 68 
z
M 23.796875 2.59375 
C 19.796875 2.59375 19.59375 3.078125 19.59375 6.46875 
L 19.59375 61.53125 
C 19.59375 64.921875 19.796875 65.40625 23.796875 65.40625 
L 35 65.40625 
C 43.296875 65.40625 58.59375 60.53125 58.59375 33.453125 
C 58.59375 19.40625 54.5 13.734375 52.59375 11.046875 
C 50.203125 7.96875 44.5 2.59375 35 2.59375 
z
" id="CMR17-68"/>
       <path d="M 41.5 30.203125 
C 41.5 35.296875 40.5 43.59375 28.703125 43.59375 
C 20.5 43.59375 16.5 37 15.296875 33.703125 
L 15.203125 33.703125 
L 15.203125 68.6875 
L 3.296875 67.59375 
L 3.296875 65 
C 9.203125 65 10.09375 64.40625 10.09375 59.640625 
L 10.09375 6.65625 
C 10.09375 2.875 9.703125 2.390625 3.296875 2.390625 
L 3.296875 -0.203125 
C 5.703125 0 10.09375 0 12.703125 0 
C 15.296875 0 19.796875 0 22.203125 -0.203125 
L 22.203125 2.390625 
C 15.796875 2.390625 15.40625 2.78125 15.40625 6.6875 
L 15.40625 25.90625 
C 15.40625 35.109375 21 42 28 42 
C 35.40625 42 36.203125 35.40625 36.203125 30.59375 
L 36.203125 6.6875 
C 36.203125 2.875 35.796875 2.390625 29.40625 2.390625 
L 29.40625 -0.203125 
C 31.796875 0 36.203125 0 38.796875 0 
C 41.40625 0 45.90625 0 48.296875 -0.203125 
L 48.296875 2.390625 
C 41.90625 2.390625 41.5 2.78125 41.5 6.6875 
z
" id="CMR17-104"/>
      </defs>
      <g transform="translate(97.833989 292.155793)rotate(-45)scale(0.18 -0.18)">
       <use transform="scale(0.996264)" xlink:href="#CMR17-68"/>
       <use transform="translate(70.393556 0)scale(0.996264)" xlink:href="#CMR17-105"/>
       <use transform="translate(95.264614 0)scale(0.996264)" xlink:href="#CMR17-114"/>
       <use transform="translate(130.545382 0)scale(0.996264)" xlink:href="#CMR17-105"/>
       <use transform="translate(155.416441 0)scale(0.996264)" xlink:href="#CMR17-99"/>
       <use transform="translate(193.299647 0)scale(0.996264)" xlink:href="#CMR17-104"/>
       <use transform="translate(244.195017 0)scale(0.996264)" xlink:href="#CMR17-108"/>
       <use transform="translate(269.066075 0)scale(0.996264)" xlink:href="#CMR17-101"/>
       <use transform="translate(309.551736 0)scale(0.996264)" xlink:href="#CMR17-116"/>
      </g>
     </g>
    </g>
   </g>
   <g id="matplotlib.axis_46"/>
   <g id="text_29">
    <g id="patch_47">
     <path d="M 124.215579 218.620866 
L 164.165225 218.620866 
L 164.165225 191.879502 
L 124.215579 191.879502 
z
" style="fill:none;opacity:0;"/>
    </g>
    <!-- 10.5 -->
    <g style="fill:#ffffff;" transform="translate(129.615579 209.732802)scale(0.18 -0.18)">
     <use transform="scale(0.996264)" xlink:href="#CMR17-49"/>
     <use transform="translate(45.690477 0)scale(0.996264)" xlink:href="#CMR17-48"/>
     <use transform="translate(91.380954 0)scale(0.996264)" xlink:href="#CMR17-46"/>
     <use transform="translate(116.252013 0)scale(0.996264)" xlink:href="#CMR17-53"/>
    </g>
   </g>
  </g>
  <g id="axes_24">
   <g id="patch_48">
    <path d="M 172.870822 232.46 
L 227.500192 232.46 
L 227.500192 178.040368 
L 172.870822 178.040368 
z
" style="fill:#ffffff;"/>
   </g>
   <g id="PathCollection_24">
    <defs>
     <path d="M 0 158.113883 
C 41.932292 158.113883 82.152791 141.454007 111.803399 111.803399 
C 141.454007 82.152791 158.113883 41.932292 158.113883 0 
C 158.113883 -41.932292 141.454007 -82.152791 111.803399 -111.803399 
C 82.152791 -141.454007 41.932292 -158.113883 0 -158.113883 
C -41.932292 -158.113883 -82.152791 -141.454007 -111.803399 -111.803399 
C -141.454007 -82.152791 -158.113883 -41.932292 -158.113883 0 
C -158.113883 41.932292 -141.454007 82.152791 -111.803399 111.803399 
C -82.152791 141.454007 -41.932292 158.113883 0 158.113883 
z
" id="C17_0_2f5e817865"/>
    </defs>
    <a xlink:href="https://www.google.com/search?q=Weller+factory">
     <g clip-path="url(#p205d2a7559)">
      <use style="fill:#f4f9fe;stroke:#f4f9fe;" x="200.185507" xlink:href="#C17_0_2f5e817865" y="205.250184"/>
     </g>
    </a>
    <a xlink:href="https://www.google.com/search?q=Weller+factory">
     <g clip-path="url(#p205d2a7559)">
      <use style="fill:#f4f9fe;stroke:#f4f9fe;" x="609.905787" xlink:href="#C17_0_2f5e817865" y="-1019.191534"/>
     </g>
    </a>
   </g>
   <g id="matplotlib.axis_47">
    <g id="xtick_3">
     <g id="line2d_7">
      <g>
       <use style="stroke:#000000;stroke-width:0.8;" x="200.185507" xlink:href="#m27f363dadc" y="232.46"/>
      </g>
     </g>
     <g id="text_30">
      <!-- Weller -->
      <defs>
       <path d="M 86.296875 58.8125 
C 87.203125 61.5 88.703125 65 94.5 65 
L 94.5 67.59375 
C 92.796875 67.59375 89.296875 67.59375 87.5 67.59375 
C 85 67.59375 80.59375 67.59375 78.203125 67.6875 
L 78.203125 65 
C 82.703125 65 84.59375 62.5 84.59375 60.109375 
C 84.59375 59.40625 84.5 59.015625 84.09375 57.921875 
L 68.59375 8.671875 
L 52.296875 60.515625 
C 52 61.515625 51.90625 61.921875 51.90625 62.3125 
C 51.90625 65 56.296875 65 58.203125 65 
L 58.203125 67.59375 
C 55.296875 67.59375 50.296875 67.59375 47.203125 67.59375 
C 44.703125 67.59375 40.203125 67.59375 37.90625 67.6875 
L 37.90625 65 
C 42.5 65 43.703125 64.703125 44.703125 62.921875 
C 45.09375 62.015625 46.703125 56.84375 46.703125 56.546875 
C 46.703125 56.140625 46.5 55.546875 46.40625 55.25 
L 31.703125 8.765625 
L 15.40625 60.421875 
C 14.90625 61.828125 14.90625 62.015625 14.90625 62.21875 
C 14.90625 65 19.296875 65 21.296875 65 
L 21.296875 67.59375 
C 18.40625 67.59375 13.40625 67.59375 10.296875 67.59375 
C 7.703125 67.59375 3.296875 67.59375 0.90625 67.6875 
L 0.90625 65 
C 6.90625 65 7.296875 64.40625 8.296875 61.21875 
L 27.796875 -0.3125 
C 28.296875 -1.796875 28.296875 -2 29.203125 -2 
C 30 -2 30.296875 -1.796875 30.703125 -0.40625 
L 47.703125 53.640625 
L 64.703125 -0.40625 
C 65.09375 -1.796875 65.40625 -2 66.203125 -2 
C 67.09375 -2 67.09375 -1.796875 67.59375 -0.3125 
z
" id="CMR17-87"/>
      </defs>
      <g transform="translate(165.48136 280.503527)rotate(-45)scale(0.18 -0.18)">
       <use transform="scale(0.996264)" xlink:href="#CMR17-87"/>
       <use transform="translate(87.289395 0)scale(0.996264)" xlink:href="#CMR17-101"/>
       <use transform="translate(127.775055 0)scale(0.996264)" xlink:href="#CMR17-108"/>
       <use transform="translate(152.646113 0)scale(0.996264)" xlink:href="#CMR17-108"/>
       <use transform="translate(177.517172 0)scale(0.996264)" xlink:href="#CMR17-101"/>
       <use transform="translate(218.002832 0)scale(0.996264)" xlink:href="#CMR17-114"/>
      </g>
     </g>
    </g>
   </g>
   <g id="matplotlib.axis_48"/>
   <g id="text_31">
    <g id="patch_49">
     <path d="M 184.322827 218.620866 
L 216.048187 218.620866 
L 216.048187 191.879502 
L 184.322827 191.879502 
z
" style="fill:none;opacity:0;"/>
    </g>
    <!-- 0.5 -->
    <g transform="translate(189.722827 209.732802)scale(0.18 -0.18)">
     <use transform="scale(0.996264)" xlink:href="#CMR17-48"/>
     <use transform="translate(45.690477 0)scale(0.996264)" xlink:href="#CMR17-46"/>
     <use transform="translate(70.561536 0)scale(0.996264)" xlink:href="#CMR17-53"/>
    </g>
   </g>
  </g>
  <g id="axes_25">
   <g id="patch_50">
    <path d="M 228.865927 232.46 
L 283.495297 232.46 
L 283.495297 178.040368 
L 228.865927 178.040368 
z
" style="fill:#ffffff;"/>
   </g>
   <g id="PathCollection_25">
    <defs>
     <path d="M 0 158.113883 
C 41.932292 158.113883 82.152791 141.454007 111.803399 111.803399 
C 141.454007 82.152791 158.113883 41.932292 158.113883 0 
C 158.113883 -41.932292 141.454007 -82.152791 111.803399 -111.803399 
C 82.152791 -141.454007 41.932292 -158.113883 0 -158.113883 
C -41.932292 -158.113883 -82.152791 -141.454007 -111.803399 -111.803399 
C -141.454007 -82.152791 -158.113883 -41.932292 -158.113883 0 
C -158.113883 41.932292 -141.454007 82.152791 -111.803399 111.803399 
C -82.152791 141.454007 -41.932292 158.113883 0 158.113883 
z
" id="C18_0_803391a881"/>
    </defs>
    <a xlink:href="https://www.google.com/search?q=luminescent+factory">
     <g clip-path="url(#p2b93ff3b55)">
      <use style="fill:#d2e3f3;stroke:#d2e3f3;" x="256.180612" xlink:href="#C18_0_803391a881" y="205.250184"/>
     </g>
    </a>
    <a xlink:href="https://www.google.com/search?q=luminescent+factory">
     <g clip-path="url(#p2b93ff3b55)">
      <use style="fill:#d2e3f3;stroke:#d2e3f3;" x="665.900892" xlink:href="#C18_0_803391a881" y="-1019.191534"/>
     </g>
    </a>
   </g>
   <g id="matplotlib.axis_49">
    <g id="xtick_4">
     <g id="line2d_8">
      <g>
       <use style="stroke:#000000;stroke-width:0.8;" x="256.180612" xlink:href="#m27f363dadc" y="232.46"/>
      </g>
     </g>
     <g id="text_32">
      <!-- luminescent -->
      <defs>
       <path d="M 41.5 30.203125 
C 41.5 35.296875 40.5 43.59375 28.703125 43.59375 
C 20.796875 43.59375 16.703125 37.5 15.203125 33.5 
L 15.09375 33.5 
L 15.09375 43.59375 
L 3.296875 42.5 
L 3.296875 39.90625 
C 9.203125 39.90625 10.09375 39.296875 10.09375 34.5 
L 10.09375 6.6875 
C 10.09375 2.875 9.703125 2.390625 3.296875 2.390625 
L 3.296875 -0.203125 
C 5.703125 0 10.09375 0 12.703125 0 
C 15.296875 0 19.796875 0 22.203125 -0.203125 
L 22.203125 2.390625 
C 15.796875 2.390625 15.40625 2.78125 15.40625 6.6875 
L 15.40625 25.90625 
C 15.40625 35.109375 21 42 28 42 
C 35.40625 42 36.203125 35.40625 36.203125 30.59375 
L 36.203125 6.6875 
C 36.203125 2.875 35.796875 2.390625 29.40625 2.390625 
L 29.40625 -0.203125 
C 31.796875 0 36.203125 0 38.796875 0 
C 41.40625 0 45.90625 0 48.296875 -0.203125 
L 48.296875 2.390625 
C 41.90625 2.390625 41.5 2.78125 41.5 6.6875 
z
" id="CMR17-110"/>
      </defs>
      <g transform="translate(193.984065 307.995926)rotate(-45)scale(0.18 -0.18)">
       <use transform="scale(0.996264)" xlink:href="#CMR17-108"/>
       <use transform="translate(24.871058 0)scale(0.996264)" xlink:href="#CMR17-117"/>
       <use transform="translate(75.766428 0)scale(0.996264)" xlink:href="#CMR17-109"/>
       <use transform="translate(152.686018 0)scale(0.996264)" xlink:href="#CMR17-105"/>
       <use transform="translate(177.557077 0)scale(0.996264)" xlink:href="#CMR17-110"/>
       <use transform="translate(228.452446 0)scale(0.996264)" xlink:href="#CMR17-101"/>
       <use transform="translate(268.938107 0)scale(0.996264)" xlink:href="#CMR17-115"/>
       <use transform="translate(304.739444 0)scale(0.996264)" xlink:href="#CMR17-99"/>
       <use transform="translate(345.225105 0)scale(0.996264)" xlink:href="#CMR17-101"/>
       <use transform="translate(385.710765 0)scale(0.996264)" xlink:href="#CMR17-110"/>
       <use transform="translate(434.003681 0)scale(0.996264)" xlink:href="#CMR17-116"/>
      </g>
     </g>
    </g>
   </g>
   <g id="matplotlib.axis_50"/>
   <g id="text_33">
    <g id="patch_51">
     <path d="M 240.317932 218.620866 
L 272.043292 218.620866 
L 272.043292 191.879502 
L 240.317932 191.879502 
z
" style="fill:none;opacity:0;"/>
    </g>
    <!-- 4.5 -->
    <g transform="translate(245.717932 209.732802)scale(0.18 -0.18)">
     <use transform="scale(0.996264)" xlink:href="#CMR17-52"/>
     <use transform="translate(45.690477 0)scale(0.996264)" xlink:href="#CMR17-46"/>
     <use transform="translate(70.561536 0)scale(0.996264)" xlink:href="#CMR17-53"/>
    </g>
   </g>
  </g>
  <g id="axes_26">
   <g id="patch_52">
    <path d="M 284.861032 232.46 
L 339.490402 232.46 
L 339.490402 178.040368 
L 284.861032 178.040368 
z
" style="fill:#ffffff;"/>
   </g>
   <g id="PathCollection_26">
    <defs>
     <path d="M 0 158.113883 
C 41.932292 158.113883 82.152791 141.454007 111.803399 111.803399 
C 141.454007 82.152791 158.113883 41.932292 158.113883 0 
C 158.113883 -41.932292 141.454007 -82.152791 111.803399 -111.803399 
C 82.152791 -141.454007 41.932292 -158.113883 0 -158.113883 
C -41.932292 -158.113883 -82.152791 -141.454007 -111.803399 -111.803399 
C -141.454007 -82.152791 -158.113883 -41.932292 -158.113883 0 
C -158.113883 41.932292 -141.454007 82.152791 -111.803399 111.803399 
C -82.152791 141.454007 -41.932292 158.113883 0 158.113883 
z
" id="C19_0_79b49c55d5"/>
    </defs>
    <a xlink:href="https://www.google.com/search?q=solute+factory">
     <g clip-path="url(#p78f60114f9)">
      <use style="fill:#dfebf7;stroke:#dfebf7;" x="312.175717" xlink:href="#C19_0_79b49c55d5" y="205.250184"/>
     </g>
    </a>
    <a xlink:href="https://www.google.com/search?q=solute+factory">
     <g clip-path="url(#p78f60114f9)">
      <use style="fill:#dfebf7;stroke:#dfebf7;" x="721.895997" xlink:href="#C19_0_79b49c55d5" y="-1019.191534"/>
     </g>
    </a>
   </g>
   <g id="matplotlib.axis_51">
    <g id="xtick_5">
     <g id="line2d_9">
      <g>
       <use style="stroke:#000000;stroke-width:0.8;" x="312.175717" xlink:href="#m27f363dadc" y="232.46"/>
      </g>
     </g>
     <g id="text_34">
      <!-- solute -->
      <g transform="translate(280.050108 277.924989)rotate(-45)scale(0.18 -0.18)">
       <use transform="scale(0.996264)" xlink:href="#CMR17-115"/>
       <use transform="translate(35.801338 0)scale(0.996264)" xlink:href="#CMR17-111"/>
       <use transform="translate(81.491815 0)scale(0.996264)" xlink:href="#CMR17-108"/>
       <use transform="translate(106.362873 0)scale(0.996264)" xlink:href="#CMR17-117"/>
       <use transform="translate(157.258243 0)scale(0.996264)" xlink:href="#CMR17-116"/>
       <use transform="translate(192.539011 0)scale(0.996264)" xlink:href="#CMR17-101"/>
      </g>
     </g>
    </g>
   </g>
   <g id="matplotlib.axis_52"/>
   <g id="text_35">
    <g id="patch_53">
     <path d="M 296.313037 218.620866 
L 328.038397 218.620866 
L 328.038397 191.879502 
L 296.313037 191.879502 
z
" style="fill:none;opacity:0;"/>
    </g>
    <!-- 3.0 -->
    <g transform="translate(301.713037 209.732802)scale(0.18 -0.18)">
     <use transform="scale(0.996264)" xlink:href="#CMR17-51"/>
     <use transform="translate(45.690477 0)scale(0.996264)" xlink:href="#CMR17-46"/>
     <use transform="translate(70.561536 0)scale(0.996264)" xlink:href="#CMR17-48"/>
    </g>
   </g>
  </g>
  <g id="axes_27">
   <g id="patch_54">
    <path d="M 340.856137 232.46 
L 395.485507 232.46 
L 395.485507 178.040368 
L 340.856137 178.040368 
z
" style="fill:#ffffff;"/>
   </g>
   <g id="PathCollection_27">
    <defs>
     <path d="M 0 158.113883 
C 41.932292 158.113883 82.152791 141.454007 111.803399 111.803399 
C 141.454007 82.152791 158.113883 41.932292 158.113883 0 
C 158.113883 -41.932292 141.454007 -82.152791 111.803399 -111.803399 
C 82.152791 -141.454007 41.932292 -158.113883 0 -158.113883 
C -41.932292 -158.113883 -82.152791 -141.454007 -111.803399 -111.803399 
C -141.454007 -82.152791 -158.113883 -41.932292 -158.113883 0 
C -158.113883 41.932292 -141.454007 82.152791 -111.803399 111.803399 
C -82.152791 141.454007 -41.932292 158.113883 0 158.113883 
z
" id="C1a_0_872232913a"/>
    </defs>
    <a xlink:href="https://www.google.com/search?q=unital+factory">
     <g clip-path="url(#p6e5d45513d)">
      <use style="fill:#1b69af;stroke:#1b69af;" x="368.170822" xlink:href="#C1a_0_872232913a" y="205.250184"/>
     </g>
    </a>
    <a xlink:href="https://www.google.com/search?q=unital+factory">
     <g clip-path="url(#p6e5d45513d)">
      <use style="fill:#1b69af;stroke:#1b69af;" x="777.891102" xlink:href="#C1a_0_872232913a" y="-1019.191534"/>
     </g>
    </a>
   </g>
   <g id="matplotlib.axis_53">
    <g id="xtick_6">
     <g id="line2d_10">
      <g>
       <use style="stroke:#000000;stroke-width:0.8;" x="368.170822" xlink:href="#m27f363dadc" y="232.46"/>
      </g>
     </g>
     <g id="text_36">
      <!-- unital -->
      <g transform="translate(336.111471 277.85873)rotate(-45)scale(0.18 -0.18)">
       <use transform="scale(0.996264)" xlink:href="#CMR17-117"/>
       <use transform="translate(50.89537 0)scale(0.996264)" xlink:href="#CMR17-110"/>
       <use transform="translate(101.79074 0)scale(0.996264)" xlink:href="#CMR17-105"/>
       <use transform="translate(126.661798 0)scale(0.996264)" xlink:href="#CMR17-116"/>
       <use transform="translate(161.942566 0)scale(0.996264)" xlink:href="#CMR17-97"/>
       <use transform="translate(207.633043 0)scale(0.996264)" xlink:href="#CMR17-108"/>
      </g>
     </g>
    </g>
   </g>
   <g id="matplotlib.axis_54"/>
   <g id="text_37">
    <g id="patch_55">
     <path d="M 348.195999 218.620866 
L 388.145645 218.620866 
L 388.145645 191.879502 
L 348.195999 191.879502 
z
" style="fill:none;opacity:0;"/>
    </g>
    <!-- 18.2 -->
    <g style="fill:#ffffff;" transform="translate(353.595999 209.732802)scale(0.18 -0.18)">
     <use transform="scale(0.996264)" xlink:href="#CMR17-49"/>
     <use transform="translate(45.690477 0)scale(0.996264)" xlink:href="#CMR17-56"/>
     <use transform="translate(91.380954 0)scale(0.996264)" xlink:href="#CMR17-46"/>
     <use transform="translate(116.252013 0)scale(0.996264)" xlink:href="#CMR17-50"/>
    </g>
   </g>
  </g>
  <g id="axes_28">
   <g id="patch_56">
    <path d="M 396.851241 232.46 
L 451.480612 232.46 
L 451.480612 178.040368 
L 396.851241 178.040368 
z
" style="fill:#ffffff;"/>
   </g>
   <g id="PathCollection_28">
    <defs>
     <path d="M 0 158.113883 
C 41.932292 158.113883 82.152791 141.454007 111.803399 111.803399 
C 141.454007 82.152791 158.113883 41.932292 158.113883 0 
C 158.113883 -41.932292 141.454007 -82.152791 111.803399 -111.803399 
C 82.152791 -141.454007 41.932292 -158.113883 0 -158.113883 
C -41.932292 -158.113883 -82.152791 -141.454007 -111.803399 -111.803399 
C -141.454007 -82.152791 -158.113883 -41.932292 -158.113883 0 
C -158.113883 41.932292 -141.454007 82.152791 -111.803399 111.803399 
C -82.152791 141.454007 -41.932292 158.113883 0 158.113883 
z
" id="C1b_0_cc581a2e5f"/>
    </defs>
    <a xlink:href="https://www.google.com/search?q=Schofield+factory">
     <g clip-path="url(#pf1c03f811c)">
      <use style="fill:#08306b;stroke:#08306b;" x="424.165927" xlink:href="#C1b_0_cc581a2e5f" y="205.250184"/>
     </g>
    </a>
    <a xlink:href="https://www.google.com/search?q=Schofield+factory">
     <g clip-path="url(#pf1c03f811c)">
      <use style="fill:#08306b;stroke:#08306b;" x="833.886206" xlink:href="#C1b_0_cc581a2e5f" y="-1019.191534"/>
     </g>
    </a>
   </g>
   <g id="matplotlib.axis_55">
    <g id="xtick_7">
     <g id="line2d_11">
      <g>
       <use style="stroke:#000000;stroke-width:0.8;" x="424.165927" xlink:href="#m27f363dadc" y="232.46"/>
      </g>
     </g>
     <g id="text_38">
      <!-- Schofield -->
      <defs>
       <path d="M 39.90625 43.1875 
C 37.5 43.1875 30.09375 43.1875 28.203125 42.796875 
C 27.59375 42.578125 27.40625 42.578125 26.203125 42.578125 
L 14.796875 42.578125 
L 14.796875 54.203125 
C 14.796875 63.640625 22.40625 68 28.40625 68 
C 30.296875 68 34.59375 67.5 36.796875 64.078125 
C 35.796875 64.078125 32.59375 64.078125 32.59375 60.59375 
C 32.59375 58.203125 34.203125 57 36.203125 57 
C 38 57 39.796875 58 39.796875 60.703125 
C 39.796875 65.703125 35 69.59375 28.796875 69.59375 
C 20.90625 69.59375 9.90625 65.125 9.90625 54.203125 
L 9.90625 42.578125 
L 1.90625 42.578125 
L 1.90625 40 
L 9.90625 40 
L 9.90625 6.671875 
C 9.90625 2.875 9.5 2.390625 3.09375 2.390625 
L 3.09375 -0.203125 
C 5.5 0 9.90625 0 12.40625 0 
C 15 0 19.40625 0 21.796875 -0.203125 
L 21.796875 2.390625 
C 15.40625 2.390625 15 2.78125 15 6.671875 
L 15 40 
L 29.703125 40 
C 34 40 34.796875 39.09375 34.796875 34.71875 
L 34.796875 6.671875 
C 34.796875 2.875 34.40625 2.390625 28 2.390625 
L 28 -0.203125 
C 30.40625 0 34.796875 0 37.296875 0 
C 39.90625 0 44.296875 0 46.703125 -0.203125 
L 46.703125 2.390625 
C 40.296875 2.390625 39.90625 2.78125 39.90625 6.671875 
z
" id="CMR17-12"/>
       <path d="M 29.203125 67.59375 
L 29.203125 65 
C 35.09375 65 36 64.40625 36 59.6875 
L 36 36.640625 
C 35.59375 37.140625 31.5 43.59375 23.40625 43.59375 
C 13.203125 43.59375 3.296875 34.5 3.296875 21.3125 
C 3.296875 8.203125 12.59375 -1 22.40625 -1 
C 30.90625 -1 35.296875 5.265625 35.796875 5.9375 
L 35.796875 -0.984375 
L 47.90625 -0.984375 
L 47.90625 2 
C 42 2 41.09375 2.59375 41.09375 7.390625 
L 41.09375 68.6875 
z
M 35.796875 11.796875 
C 35.796875 8.796875 34 6.09375 31.703125 4.09375 
C 28.296875 1.09375 24.90625 0.59375 23 0.59375 
C 20.09375 0.59375 9.703125 2.09375 9.703125 21.1875 
C 9.703125 40.8125 21.296875 42 23.90625 42 
C 28.5 42 32.203125 39.40625 34.5 35.796875 
C 35.796875 33.703125 35.796875 33.40625 35.796875 31.609375 
z
" id="CMR17-100"/>
      </defs>
      <g transform="translate(376.978862 292.986444)rotate(-45)scale(0.18 -0.18)">
       <use transform="scale(0.996264)" xlink:href="#CMR17-83"/>
       <use transform="translate(50.89537 0)scale(0.996264)" xlink:href="#CMR17-99"/>
       <use transform="translate(88.778576 0)scale(0.996264)" xlink:href="#CMR17-104"/>
       <use transform="translate(139.673946 0)scale(0.996264)" xlink:href="#CMR17-111"/>
       <use transform="translate(185.364423 0)scale(0.996264)" xlink:href="#CMR17-12"/>
       <use transform="translate(235.106647 0)scale(0.996264)" xlink:href="#CMR17-101"/>
       <use transform="translate(275.592307 0)scale(0.996264)" xlink:href="#CMR17-108"/>
       <use transform="translate(300.463366 0)scale(0.996264)" xlink:href="#CMR17-100"/>
      </g>
     </g>
    </g>
   </g>
   <g id="matplotlib.axis_56"/>
   <g id="text_39">
    <g id="patch_57">
     <path d="M 404.191104 218.620866 
L 444.14075 218.620866 
L 444.14075 191.879502 
L 404.191104 191.879502 
z
" style="fill:none;opacity:0;"/>
    </g>
    <!-- 23.4 -->
    <g style="fill:#ffffff;" transform="translate(409.591104 209.732802)scale(0.18 -0.18)">
     <use transform="scale(0.996264)" xlink:href="#CMR17-50"/>
     <use transform="translate(45.690477 0)scale(0.996264)" xlink:href="#CMR17-51"/>
     <use transform="translate(91.380954 0)scale(0.996264)" xlink:href="#CMR17-46"/>
     <use transform="translate(116.252013 0)scale(0.996264)" xlink:href="#CMR17-52"/>
    </g>
   </g>
  </g>
 </g>
 <defs>
  <clipPath id="p5f76596c59">
   <rect height="54.419632" width="54.629371" x="60.880612" y="10.7"/>
  </clipPath>
  <clipPath id="p543ab6cee7">
   <rect height="54.419632" width="54.629371" x="116.875717" y="10.7"/>
  </clipPath>
  <clipPath id="p716e0b0dee">
   <rect height="54.419632" width="54.629371" x="172.870822" y="10.7"/>
  </clipPath>
  <clipPath id="pc9bea1ba38">
   <rect height="54.419632" width="54.629371" x="228.865927" y="10.7"/>
  </clipPath>
  <clipPath id="p84df0b61ff">
   <rect height="54.419632" width="54.629371" x="284.861032" y="10.7"/>
  </clipPath>
  <clipPath id="pdef8b022a2">
   <rect height="54.419632" width="54.629371" x="340.856137" y="10.7"/>
  </clipPath>
  <clipPath id="p062e2c6fbe">
   <rect height="54.419632" width="54.629371" x="396.851241" y="10.7"/>
  </clipPath>
  <clipPath id="ped1579e70d">
   <rect height="54.419632" width="54.629371" x="60.880612" y="66.480123"/>
  </clipPath>
  <clipPath id="pa3408c3bbd">
   <rect height="54.419632" width="54.629371" x="116.875717" y="66.480123"/>
  </clipPath>
  <clipPath id="p656a02ca7b">
   <rect height="54.419632" width="54.629371" x="172.870822" y="66.480123"/>
  </clipPath>
  <clipPath id="pb92c682fb6">
   <rect height="54.419632" width="54.629371" x="228.865927" y="66.480123"/>
  </clipPath>
  <clipPath id="pd342be9798">
   <rect height="54.419632" width="54.629371" x="284.861032" y="66.480123"/>
  </clipPath>
  <clipPath id="pa82e6cf73c">
   <rect height="54.419632" width="54.629371" x="340.856137" y="66.480123"/>
  </clipPath>
  <clipPath id="p67722b7139">
   <rect height="54.419632" width="54.629371" x="396.851241" y="66.480123"/>
  </clipPath>
  <clipPath id="p997b97ffbe">
   <rect height="54.419632" width="54.629371" x="60.880612" y="122.260245"/>
  </clipPath>
  <clipPath id="pd61860d1a4">
   <rect height="54.419632" width="54.629371" x="116.875717" y="122.260245"/>
  </clipPath>
  <clipPath id="p66ae11c3bd">
   <rect height="54.419632" width="54.629371" x="172.870822" y="122.260245"/>
  </clipPath>
  <clipPath id="p7dc27b9a5f">
   <rect height="54.419632" width="54.629371" x="228.865927" y="122.260245"/>
  </clipPath>
  <clipPath id="p5615e13e62">
   <rect height="54.419632" width="54.629371" x="284.861032" y="122.260245"/>
  </clipPath>
  <clipPath id="p736f5629c6">
   <rect height="54.419632" width="54.629371" x="340.856137" y="122.260245"/>
  </clipPath>
  <clipPath id="p6a753a4a6d">
   <rect height="54.419632" width="54.629371" x="396.851241" y="122.260245"/>
  </clipPath>
  <clipPath id="pc4342772c2">
   <rect height="54.419632" width="54.629371" x="60.880612" y="178.040368"/>
  </clipPath>
  <clipPath id="p141084841a">
   <rect height="54.419632" width="54.629371" x="116.875717" y="178.040368"/>
  </clipPath>
  <clipPath id="p205d2a7559">
   <rect height="54.419632" width="54.629371" x="172.870822" y="178.040368"/>
  </clipPath>
  <clipPath id="p2b93ff3b55">
   <rect height="54.419632" width="54.629371" x="228.865927" y="178.040368"/>
  </clipPath>
  <clipPath id="p78f60114f9">
   <rect height="54.419632" width="54.629371" x="284.861032" y="178.040368"/>
  </clipPath>
  <clipPath id="p6e5d45513d">
   <rect height="54.419632" width="54.629371" x="340.856137" y="178.040368"/>
  </clipPath>
  <clipPath id="pf1c03f811c">
   <rect height="54.419632" width="54.629371" x="396.851241" y="178.040368"/>
  </clipPath>
 </defs>
</svg>
